<svg xmlns="http://www.w3.org/2000/svg" xmlns:xlink="http://www.w3.org/1999/xlink" width="500" zoomAndPan="magnify" viewBox="0 0 375 374.999991" height="500" preserveAspectRatio="xMidYMid meet" version="1.0"><defs><g/><clipPath id="f15de11247"><path d="M 240 149 L 290 149 L 290 185 L 240 185 Z M 240 149 " clip-rule="nonzero"/></clipPath><clipPath id="060b245337"><path d="M 241.671875 147.453125 L 291.089844 150.273438 L 289.082031 185.464844 L 239.664062 182.644531 Z M 241.671875 147.453125 " clip-rule="nonzero"/></clipPath><clipPath id="65a514752f"><path d="M 241.671875 147.453125 L 291.089844 150.273438 L 289.082031 185.464844 L 239.664062 182.644531 Z M 241.671875 147.453125 " clip-rule="nonzero"/></clipPath></defs><g clip-path="url(#f15de11247)"><g clip-path="url(#060b245337)"><g clip-path="url(#65a514752f)"><path fill="#830000" d="M 276.25 154.777344 C 276 153.628906 275.265625 151.101562 273.398438 149.9375 C 272.40625 149.316406 271.269531 149.164062 270.007812 149.488281 C 269.867188 149.519531 269.726562 149.570312 269.574219 149.609375 C 268.761719 149.890625 267.625 150.367188 267.242188 151.390625 C 266.894531 152.328125 267.324219 153.242188 267.835938 154.121094 L 264.953125 153.957031 L 254.296875 153.347656 C 254.277344 153.347656 254.257812 153.347656 254.238281 153.347656 C 254.109375 153.347656 250.957031 153.375 247.675781 155.191406 C 244.636719 156.894531 240.929688 160.472656 240.5 167.972656 C 240.492188 168.089844 240.488281 168.199219 240.480469 168.308594 C 240.238281 173.96875 243.53125 179.242188 248.710938 181.5625 C 248.710938 181.5625 248.710938 181.5625 248.71875 181.5625 C 249.449219 181.949219 251.304688 182.441406 253.15625 182.722656 C 253.164062 182.722656 253.183594 182.722656 253.195312 182.726562 C 253.214844 182.726562 253.234375 182.726562 253.253906 182.738281 C 253.261719 182.738281 253.28125 182.738281 253.292969 182.742188 L 254.699219 182.820312 C 255.0625 182.859375 255.433594 182.902344 255.816406 182.945312 C 256.964844 181.5 261.214844 175.5625 257.855469 171.261719 C 257.542969 170.859375 257.617188 170.28125 258.019531 169.96875 C 258.421875 169.65625 259 169.730469 259.3125 170.132812 C 261.320312 172.695312 261.523438 176.023438 259.898438 179.761719 C 259.296875 181.136719 258.558594 182.320312 257.96875 183.164062 C 266.21875 183.890625 276.710938 184.085938 276.710938 184.085938 C 277.222656 184.117188 277.660156 183.726562 277.6875 183.214844 C 277.691406 183.203125 277.691406 183.183594 277.691406 183.175781 C 277.699219 182.679688 277.316406 182.273438 276.824219 182.246094 L 273 182.027344 C 273.707031 176.382812 277.753906 175.46875 282.027344 174.496094 C 283.917969 174.070312 285.707031 173.671875 287.128906 172.824219 C 288.851562 171.808594 289.75 170.308594 289.867188 168.25 C 290.316406 159.972656 278.945312 155.671875 276.25 154.777344 Z M 282.015625 165.175781 C 281.984375 165.6875 281.550781 166.078125 281.039062 166.050781 C 280.527344 166.019531 280.136719 165.582031 280.164062 165.070312 L 280.265625 163.308594 C 280.292969 162.796875 280.730469 162.410156 281.242188 162.4375 C 281.753906 162.46875 282.144531 162.90625 282.117188 163.414062 Z M 282.015625 165.175781 " fill-opacity="1" fill-rule="nonzero"/></g></g></g><g fill="#830000" fill-opacity="1"><g transform="translate(185.099853, 204.451587)"><g><path d="M 24.953125 -15.46875 C 26.398438 -13.65625 27.332031 -11.578125 27.75 -9.234375 C 28.175781 -6.890625 27.925781 -4.644531 27 -2.5 C 26.144531 -0.613281 24.9375 0.863281 23.375 1.9375 C 21.820312 3.007812 20.117188 3.671875 18.265625 3.921875 C 16.410156 4.179688 14.5625 4.0625 12.71875 3.5625 C 10.882812 3.070312 9.242188 2.21875 7.796875 1 C 6.359375 -0.207031 5.300781 -1.742188 4.625 -3.609375 C 4.289062 -4.578125 4.28125 -5.382812 4.59375 -6.03125 C 4.90625 -6.6875 5.394531 -7.195312 6.0625 -7.5625 C 6.738281 -7.925781 7.484375 -8.09375 8.296875 -8.0625 C 9.117188 -8.03125 9.878906 -7.796875 10.578125 -7.359375 C 11.285156 -6.929688 11.796875 -6.25 12.109375 -5.3125 C 12.253906 -4.875 12.675781 -4.515625 13.375 -4.234375 C 14.082031 -3.960938 14.8125 -3.769531 15.5625 -3.65625 C 16.320312 -3.539062 16.867188 -3.503906 17.203125 -3.546875 C 17.992188 -3.648438 18.660156 -3.96875 19.203125 -4.5 C 19.753906 -5.03125 20.09375 -5.691406 20.21875 -6.484375 C 20.414062 -7.421875 20.332031 -8.273438 19.96875 -9.046875 C 19.601562 -9.828125 19.101562 -10.550781 18.46875 -11.21875 C 17.84375 -11.894531 17.203125 -12.554688 16.546875 -13.203125 C 15.898438 -13.859375 15.351562 -14.523438 14.90625 -15.203125 C 13.738281 -17.160156 13.238281 -19.039062 13.40625 -20.84375 C 13.582031 -22.644531 14.234375 -24.28125 15.359375 -25.75 C 16.492188 -27.226562 17.914062 -28.453125 19.625 -29.421875 C 21.332031 -30.390625 23.125 -31.007812 25 -31.28125 C 26 -31.382812 26.847656 -31.226562 27.546875 -30.8125 C 28.242188 -30.40625 28.769531 -29.835938 29.125 -29.109375 C 29.488281 -28.378906 29.65625 -27.625 29.625 -26.84375 C 29.59375 -26.070312 29.347656 -25.398438 28.890625 -24.828125 C 28.429688 -24.265625 27.707031 -23.90625 26.71875 -23.75 C 26.082031 -23.664062 25.320312 -23.507812 24.4375 -23.28125 C 23.5625 -23.050781 22.785156 -22.691406 22.109375 -22.203125 C 21.441406 -21.722656 21.128906 -21.046875 21.171875 -20.171875 C 21.171875 -19.585938 21.410156 -19.015625 21.890625 -18.453125 C 22.378906 -17.890625 22.914062 -17.351562 23.5 -16.84375 C 24.09375 -16.34375 24.578125 -15.882812 24.953125 -15.46875 Z M 24.953125 -15.46875 "/></g></g></g><g fill="#830000" fill-opacity="1"><g transform="translate(214.238994, 213.588167)"><g><path d="M 26.140625 -33.046875 C 26.421875 -34.003906 26.890625 -34.664062 27.546875 -35.03125 C 28.210938 -35.394531 28.925781 -35.523438 29.6875 -35.421875 C 30.457031 -35.316406 31.164062 -35.03125 31.8125 -34.5625 C 32.46875 -34.09375 32.941406 -33.476562 33.234375 -32.71875 C 33.535156 -31.957031 33.535156 -31.09375 33.234375 -30.125 C 30.273438 -21 27.882812 -11.726562 26.0625 -2.3125 C 25.875 -1.332031 25.460938 -0.578125 24.828125 -0.046875 C 24.203125 0.472656 23.488281 0.78125 22.6875 0.875 C 21.882812 0.96875 21.125 0.878906 20.40625 0.609375 C 19.695312 0.335938 19.144531 -0.117188 18.75 -0.765625 C 18.351562 -1.421875 18.242188 -2.242188 18.421875 -3.234375 C 18.710938 -4.796875 19.03125 -6.359375 19.375 -7.921875 C 19.726562 -9.492188 20.078125 -11.066406 20.421875 -12.640625 L 13.453125 -13.46875 C 12.972656 -11.5 12.492188 -9.515625 12.015625 -7.515625 C 11.535156 -5.523438 11.050781 -3.523438 10.5625 -1.515625 C 10.3125 -0.578125 9.863281 0.140625 9.21875 0.640625 C 8.570312 1.148438 7.84375 1.460938 7.03125 1.578125 C 6.226562 1.691406 5.460938 1.609375 4.734375 1.328125 C 4.015625 1.054688 3.46875 0.597656 3.09375 -0.046875 C 2.726562 -0.703125 2.671875 -1.5 2.921875 -2.4375 C 3.578125 -5.226562 4.238281 -8.003906 4.90625 -10.765625 C 5.582031 -13.523438 6.238281 -16.273438 6.875 -19.015625 C 7.21875 -20.347656 7.554688 -21.675781 7.890625 -23 C 8.222656 -24.320312 8.53125 -25.65625 8.8125 -27 C 9.09375 -28.164062 9.351562 -29.40625 9.59375 -30.71875 C 9.832031 -32.039062 10.25 -33.253906 10.84375 -34.359375 C 11.289062 -35.234375 11.882812 -35.832031 12.625 -36.15625 C 13.375 -36.476562 14.144531 -36.582031 14.9375 -36.46875 C 15.738281 -36.363281 16.453125 -36.070312 17.078125 -35.59375 C 17.710938 -35.125 18.132812 -34.53125 18.34375 -33.8125 C 18.550781 -33.101562 18.414062 -32.316406 17.9375 -31.453125 C 17.382812 -30.378906 16.992188 -29.1875 16.765625 -27.875 C 16.546875 -26.570312 16.300781 -25.359375 16.03125 -24.234375 C 15.90625 -23.691406 15.769531 -23.148438 15.625 -22.609375 C 15.488281 -22.078125 15.359375 -21.550781 15.234375 -21.03125 L 22.3125 -20.171875 C 22.882812 -22.335938 23.488281 -24.492188 24.125 -26.640625 C 24.757812 -28.785156 25.429688 -30.921875 26.140625 -33.046875 Z M 26.140625 -33.046875 "/></g></g></g><g fill="#830000" fill-opacity="1"><g transform="translate(249.299214, 217.524265)"><g><path d="M 25.65625 -34.984375 C 26.59375 -33.722656 27.285156 -32.273438 27.734375 -30.640625 C 28.179688 -29.015625 28.457031 -27.359375 28.5625 -25.671875 C 28.664062 -23.984375 28.660156 -22.398438 28.546875 -20.921875 C 28.390625 -18.640625 27.867188 -16.445312 26.984375 -14.34375 C 26.109375 -12.25 24.847656 -10.382812 23.203125 -8.75 C 21.617188 -7.226562 19.726562 -6.046875 17.53125 -5.203125 C 15.332031 -4.359375 13.128906 -4.1875 10.921875 -4.6875 C 9.460938 -5.007812 8.160156 -5.632812 7.015625 -6.5625 C 5.867188 -7.488281 4.878906 -8.578125 4.046875 -9.828125 C 3.222656 -11.085938 2.582031 -12.390625 2.125 -13.734375 C 1.59375 -15.179688 1.207031 -16.882812 0.96875 -18.84375 C 0.738281 -20.800781 0.703125 -22.816406 0.859375 -24.890625 C 1.023438 -26.972656 1.425781 -28.929688 2.0625 -30.765625 C 2.695312 -32.597656 3.628906 -34.15625 4.859375 -35.4375 C 6.109375 -36.945312 7.660156 -38.070312 9.515625 -38.8125 C 11.378906 -39.550781 13.320312 -39.910156 15.34375 -39.890625 C 17.375 -39.878906 19.300781 -39.460938 21.125 -38.640625 C 22.945312 -37.816406 24.457031 -36.597656 25.65625 -34.984375 Z M 18.046875 -14.296875 C 19.109375 -15.503906 19.859375 -16.851562 20.296875 -18.34375 C 20.734375 -19.84375 20.957031 -21.390625 20.96875 -22.984375 C 20.976562 -24.578125 20.8125 -26.113281 20.46875 -27.59375 C 20.132812 -29.082031 19.441406 -30.257812 18.390625 -31.125 C 17.335938 -32 16.015625 -32.351562 14.421875 -32.1875 C 13.523438 -32.101562 12.675781 -31.800781 11.875 -31.28125 C 11.082031 -30.769531 10.445312 -30.128906 9.96875 -29.359375 C 9.425781 -28.460938 9.066406 -27.40625 8.890625 -26.1875 C 8.722656 -24.976562 8.617188 -23.859375 8.578125 -22.828125 C 8.453125 -20.515625 8.757812 -18.269531 9.5 -16.09375 C 9.71875 -15.46875 10 -14.84375 10.34375 -14.21875 C 10.6875 -13.59375 11.15625 -13.097656 11.75 -12.734375 C 12.6875 -12.171875 13.71875 -12.023438 14.84375 -12.296875 C 15.96875 -12.578125 16.925781 -13.113281 17.71875 -13.90625 C 17.8125 -14.019531 17.921875 -14.148438 18.046875 -14.296875 Z M 18.046875 -14.296875 "/></g></g></g><g fill="#830000" fill-opacity="1"><g transform="translate(285.610319, 214.064481)"><g><path d="M 9.8125 -39.5625 C 11.570312 -39.382812 13.253906 -38.972656 14.859375 -38.328125 C 16.460938 -37.679688 17.867188 -36.796875 19.078125 -35.671875 C 20.296875 -34.554688 21.195312 -33.226562 21.78125 -31.6875 C 22.363281 -30.144531 22.515625 -28.40625 22.234375 -26.46875 C 21.835938 -24.101562 20.921875 -22.035156 19.484375 -20.265625 C 18.054688 -18.492188 16.300781 -17.109375 14.21875 -16.109375 C 12.132812 -15.117188 9.957031 -14.550781 7.6875 -14.40625 C 8.050781 -12.476562 8.414062 -10.550781 8.78125 -8.625 C 9.144531 -6.695312 9.503906 -4.765625 9.859375 -2.828125 C 10.035156 -1.878906 9.9375 -1.039062 9.5625 -0.3125 C 9.195312 0.414062 8.664062 0.984375 7.96875 1.390625 C 7.28125 1.804688 6.546875 2.023438 5.765625 2.046875 C 4.984375 2.078125 4.296875 1.878906 3.703125 1.453125 C 3.109375 1.035156 2.703125 0.34375 2.484375 -0.625 C 1.617188 -5.195312 0.742188 -9.75 -0.140625 -14.28125 C -1.023438 -18.820312 -1.878906 -23.359375 -2.703125 -27.890625 C -2.992188 -29.691406 -2.988281 -31.394531 -2.6875 -33 C -2.382812 -34.613281 -1.46875 -36.007812 0.0625 -37.1875 C 1.4375 -38.238281 2.992188 -38.929688 4.734375 -39.265625 C 6.472656 -39.609375 8.164062 -39.707031 9.8125 -39.5625 Z M 6.203125 -22.046875 C 7.097656 -22.054688 8.070312 -22.203125 9.125 -22.484375 C 10.1875 -22.773438 11.1875 -23.203125 12.125 -23.765625 C 13.0625 -24.328125 13.773438 -25.03125 14.265625 -25.875 C 14.765625 -26.726562 14.898438 -27.722656 14.671875 -28.859375 C 14.515625 -29.597656 14.054688 -30.21875 13.296875 -30.71875 C 12.546875 -31.226562 11.65625 -31.59375 10.625 -31.8125 C 9.59375 -32.039062 8.597656 -32.128906 7.640625 -32.078125 C 6.691406 -32.035156 5.929688 -31.835938 5.359375 -31.484375 C 5.046875 -31.242188 4.851562 -31.097656 4.78125 -31.046875 C 4.707031 -30.992188 4.679688 -30.914062 4.703125 -30.8125 C 4.734375 -30.71875 4.71875 -30.476562 4.65625 -30.09375 C 4.59375 -29.613281 4.664062 -29.007812 4.875 -28.28125 C 5.09375 -27.5625 5.265625 -26.929688 5.390625 -26.390625 C 5.535156 -25.648438 5.671875 -24.925781 5.796875 -24.21875 C 5.921875 -23.507812 6.054688 -22.785156 6.203125 -22.046875 Z M 6.203125 -22.046875 "/></g></g></g><g fill="#830000" fill-opacity="1"><g transform="translate(74.347429, 211.683388)"><g><path d="M 15.140625 -21.140625 C 15.898438 -21.765625 16.664062 -22.082031 17.4375 -22.09375 C 18.207031 -22.113281 18.921875 -21.898438 19.578125 -21.453125 C 20.234375 -21.015625 20.738281 -20.4375 21.09375 -19.71875 C 21.457031 -19 21.59375 -18.253906 21.5 -17.484375 C 21.40625 -16.710938 20.984375 -15.992188 20.234375 -15.328125 C 18.867188 -14.140625 17.421875 -13.03125 15.890625 -12 C 14.359375 -10.96875 12.726562 -10.164062 11 -9.59375 C 9.28125 -9.03125 7.476562 -8.804688 5.59375 -8.921875 C 3.164062 -9.078125 0.992188 -9.863281 -0.921875 -11.28125 C -2.847656 -12.707031 -4.304688 -14.550781 -5.296875 -16.8125 C -6.222656 -19.019531 -6.679688 -21.34375 -6.671875 -23.78125 C -6.671875 -26.21875 -6.25 -28.582031 -5.40625 -30.875 C -4.5625 -33.164062 -3.328125 -35.207031 -1.703125 -37 C -0.078125 -38.800781 1.875 -40.140625 4.15625 -41.015625 C 5.070312 -41.378906 5.921875 -41.4375 6.703125 -41.1875 C 7.492188 -40.9375 8.144531 -40.5 8.65625 -39.875 C 9.164062 -39.25 9.5 -38.554688 9.65625 -37.796875 C 9.820312 -37.046875 9.734375 -36.328125 9.390625 -35.640625 C 9.054688 -34.960938 8.429688 -34.445312 7.515625 -34.09375 C 5.847656 -33.425781 4.472656 -32.382812 3.390625 -30.96875 C 2.304688 -29.550781 1.578125 -27.960938 1.203125 -26.203125 C 0.835938 -24.453125 0.910156 -22.710938 1.421875 -20.984375 C 1.804688 -19.460938 2.410156 -18.378906 3.234375 -17.734375 C 4.066406 -17.085938 5 -16.753906 6.03125 -16.734375 C 7.0625 -16.722656 8.125 -16.9375 9.21875 -17.375 C 10.320312 -17.8125 11.390625 -18.363281 12.421875 -19.03125 C 13.453125 -19.707031 14.359375 -20.410156 15.140625 -21.140625 Z M 15.140625 -21.140625 "/></g></g></g><g fill="#830000" fill-opacity="1"><g transform="translate(98.107682, 199.501515)"><g><path d="M 21.140625 -37.890625 C 22.222656 -36.742188 23.082031 -35.390625 23.71875 -33.828125 C 24.363281 -32.273438 24.847656 -30.664062 25.171875 -29 C 25.492188 -27.332031 25.6875 -25.753906 25.75 -24.265625 C 25.882812 -21.992188 25.640625 -19.765625 25.015625 -17.578125 C 24.398438 -15.390625 23.375 -13.382812 21.9375 -11.5625 C 20.550781 -9.84375 18.820312 -8.425781 16.75 -7.3125 C 14.675781 -6.207031 12.507812 -5.769531 10.25 -6 C 8.769531 -6.132812 7.40625 -6.59375 6.15625 -7.375 C 4.90625 -8.164062 3.789062 -9.128906 2.8125 -10.265625 C 1.832031 -11.398438 1.03125 -12.601562 0.40625 -13.875 C -0.300781 -15.257812 -0.890625 -16.910156 -1.359375 -18.828125 C -1.828125 -20.742188 -2.109375 -22.738281 -2.203125 -24.8125 C -2.304688 -26.882812 -2.15625 -28.867188 -1.75 -30.765625 C -1.34375 -32.671875 -0.609375 -34.335938 0.453125 -35.765625 C 1.503906 -37.421875 2.90625 -38.726562 4.65625 -39.6875 C 6.414062 -40.644531 8.300781 -41.242188 10.3125 -41.484375 C 12.320312 -41.722656 14.28125 -41.546875 16.1875 -40.953125 C 18.101562 -40.359375 19.753906 -39.335938 21.140625 -37.890625 Z M 16.125 -16.40625 C 17.050781 -17.726562 17.640625 -19.160156 17.890625 -20.703125 C 18.140625 -22.242188 18.164062 -23.800781 17.96875 -25.375 C 17.78125 -26.957031 17.425781 -28.46875 16.90625 -29.90625 C 16.394531 -31.332031 15.5625 -32.410156 14.40625 -33.140625 C 13.257812 -33.878906 11.898438 -34.070312 10.328125 -33.71875 C 9.453125 -33.53125 8.648438 -33.128906 7.921875 -32.515625 C 7.203125 -31.898438 6.648438 -31.191406 6.265625 -30.390625 C 5.835938 -29.410156 5.613281 -28.304688 5.59375 -27.078125 C 5.570312 -25.847656 5.597656 -24.722656 5.671875 -23.703125 C 5.847656 -21.398438 6.4375 -19.210938 7.4375 -17.140625 C 7.738281 -16.546875 8.097656 -15.957031 8.515625 -15.375 C 8.929688 -14.800781 9.453125 -14.375 10.078125 -14.09375 C 11.078125 -13.632812 12.117188 -13.613281 13.203125 -14.03125 C 14.296875 -14.457031 15.179688 -15.113281 15.859375 -16 C 15.941406 -16.125 16.03125 -16.257812 16.125 -16.40625 Z M 16.125 -16.40625 "/></g></g></g><g fill="#830000" fill-opacity="1"><g transform="translate(127.141373, 193.109044)"><g><path d="M 23.234375 -11.65625 C 24.203125 -11.863281 25.03125 -11.789062 25.71875 -11.4375 C 26.40625 -11.082031 26.9375 -10.554688 27.3125 -9.859375 C 27.6875 -9.171875 27.867188 -8.421875 27.859375 -7.609375 C 27.847656 -6.804688 27.617188 -6.085938 27.171875 -5.453125 C 26.722656 -4.816406 26.015625 -4.378906 25.046875 -4.140625 C 23.273438 -3.722656 21.472656 -3.414062 19.640625 -3.21875 C 17.804688 -3.019531 15.992188 -3.066406 14.203125 -3.359375 C 12.421875 -3.660156 10.722656 -4.304688 9.109375 -5.296875 C 7.035156 -6.566406 5.476562 -8.273438 4.4375 -10.421875 C 3.394531 -12.578125 2.96875 -14.882812 3.15625 -17.34375 C 3.363281 -19.726562 4.035156 -22 5.171875 -24.15625 C 6.316406 -26.3125 7.796875 -28.207031 9.609375 -29.84375 C 11.429688 -31.476562 13.472656 -32.707031 15.734375 -33.53125 C 17.992188 -34.363281 20.34375 -34.632812 22.78125 -34.34375 C 23.769531 -34.25 24.550781 -33.90625 25.125 -33.3125 C 25.707031 -32.726562 26.078125 -32.039062 26.234375 -31.25 C 26.398438 -30.457031 26.375 -29.6875 26.15625 -28.9375 C 25.945312 -28.195312 25.535156 -27.601562 24.921875 -27.15625 C 24.304688 -26.71875 23.503906 -26.550781 22.515625 -26.65625 C 20.742188 -26.851562 19.046875 -26.570312 17.421875 -25.8125 C 15.796875 -25.0625 14.414062 -24 13.28125 -22.625 C 12.144531 -21.25 11.394531 -19.675781 11.03125 -17.90625 C 10.664062 -16.375 10.695312 -15.132812 11.125 -14.1875 C 11.5625 -13.238281 12.226562 -12.515625 13.125 -12.015625 C 14.03125 -11.523438 15.070312 -11.21875 16.25 -11.09375 C 17.4375 -10.96875 18.640625 -10.957031 19.859375 -11.0625 C 21.078125 -11.175781 22.203125 -11.375 23.234375 -11.65625 Z M 23.234375 -11.65625 "/></g></g></g><g fill="#830000" fill-opacity="1"><g transform="translate(153.841136, 193.397448)"><g><path d="M 36.359375 -23.671875 C 36.785156 -22.171875 36.921875 -20.578125 36.765625 -18.890625 C 36.609375 -17.210938 36.28125 -15.5625 35.78125 -13.9375 C 35.289062 -12.320312 34.726562 -10.835938 34.09375 -9.484375 C 33.144531 -7.410156 31.890625 -5.546875 30.328125 -3.890625 C 28.765625 -2.234375 26.921875 -0.941406 24.796875 -0.015625 C 22.765625 0.859375 20.570312 1.300781 18.21875 1.3125 C 15.875 1.332031 13.757812 0.71875 11.875 -0.53125 C 10.625 -1.34375 9.628906 -2.382812 8.890625 -3.65625 C 8.148438 -4.9375 7.609375 -6.304688 7.265625 -7.765625 C 6.929688 -9.234375 6.785156 -10.675781 6.828125 -12.09375 C 6.859375 -13.644531 7.109375 -15.378906 7.578125 -17.296875 C 8.046875 -19.210938 8.722656 -21.109375 9.609375 -22.984375 C 10.492188 -24.867188 11.554688 -26.554688 12.796875 -28.046875 C 14.035156 -29.546875 15.457031 -30.671875 17.0625 -31.421875 C 18.757812 -32.398438 20.609375 -32.90625 22.609375 -32.9375 C 24.617188 -32.976562 26.566406 -32.628906 28.453125 -31.890625 C 30.335938 -31.160156 31.988281 -30.09375 33.40625 -28.6875 C 34.820312 -27.28125 35.804688 -25.609375 36.359375 -23.671875 Z M 21.921875 -7 C 23.347656 -7.75 24.53125 -8.742188 25.46875 -9.984375 C 26.40625 -11.234375 27.15625 -12.601562 27.71875 -14.09375 C 28.289062 -15.582031 28.679688 -17.082031 28.890625 -18.59375 C 29.109375 -20.09375 28.878906 -21.4375 28.203125 -22.625 C 27.523438 -23.8125 26.410156 -24.609375 24.859375 -25.015625 C 23.992188 -25.253906 23.097656 -25.269531 22.171875 -25.0625 C 21.242188 -24.863281 20.421875 -24.492188 19.703125 -23.953125 C 18.867188 -23.296875 18.15625 -22.429688 17.5625 -21.359375 C 16.976562 -20.285156 16.484375 -19.273438 16.078125 -18.328125 C 15.148438 -16.210938 14.648438 -14.003906 14.578125 -11.703125 C 14.554688 -11.035156 14.597656 -10.347656 14.703125 -9.640625 C 14.804688 -8.941406 15.066406 -8.320312 15.484375 -7.78125 C 16.160156 -6.90625 17.070312 -6.398438 18.21875 -6.265625 C 19.375 -6.140625 20.460938 -6.304688 21.484375 -6.765625 C 21.609375 -6.835938 21.753906 -6.914062 21.921875 -7 Z M 21.921875 -7 "/></g></g></g></svg>