<svg xmlns="http://www.w3.org/2000/svg" xmlns:xlink="http://www.w3.org/1999/xlink" width="500" zoomAndPan="magnify" viewBox="0 0 375 374.999991" height="500" preserveAspectRatio="xMidYMid meet" version="1.0"><defs><g/><clipPath id="4611241dfb"><path d="M 229 145 L 280 145 L 280 180 L 229 180 Z M 229 145 " clip-rule="nonzero"/></clipPath><clipPath id="684bf33063"><path d="M 230.917969 143.25 L 280.335938 146.070312 L 278.332031 181.261719 L 228.910156 178.445312 Z M 230.917969 143.25 " clip-rule="nonzero"/></clipPath><clipPath id="23be9bdcb1"><path d="M 230.917969 143.25 L 280.335938 146.070312 L 278.332031 181.261719 L 228.910156 178.445312 Z M 230.917969 143.25 " clip-rule="nonzero"/></clipPath></defs><g clip-path="url(#4611241dfb)"><g clip-path="url(#684bf33063)"><g clip-path="url(#23be9bdcb1)"><path fill="#fffef4" d="M 265.496094 150.578125 C 265.246094 149.425781 264.511719 146.898438 262.644531 145.734375 C 261.652344 145.113281 260.515625 144.960938 259.253906 145.285156 C 259.113281 145.316406 258.972656 145.367188 258.820312 145.40625 C 258.007812 145.6875 256.875 146.164062 256.488281 147.191406 C 256.140625 148.128906 256.570312 149.039062 257.085938 149.917969 L 254.199219 149.753906 L 243.542969 149.148438 C 243.523438 149.144531 243.503906 149.144531 243.484375 149.144531 C 243.355469 149.144531 240.207031 149.171875 236.921875 150.988281 C 233.882812 152.691406 230.175781 156.273438 229.746094 163.769531 C 229.742188 163.886719 229.734375 163.996094 229.726562 164.105469 C 229.484375 169.765625 232.777344 175.039062 237.957031 177.359375 C 237.957031 177.359375 237.957031 177.359375 237.964844 177.359375 C 238.695312 177.746094 240.550781 178.238281 242.402344 178.519531 C 242.410156 178.519531 242.429688 178.523438 242.441406 178.523438 C 242.460938 178.523438 242.480469 178.523438 242.5 178.535156 C 242.507812 178.535156 242.527344 178.539062 242.539062 178.539062 L 243.945312 178.617188 C 244.308594 178.660156 244.683594 178.699219 245.0625 178.742188 C 246.214844 177.296875 250.460938 171.359375 247.101562 167.058594 C 246.789062 166.65625 246.863281 166.078125 247.265625 165.765625 C 247.667969 165.453125 248.246094 165.527344 248.558594 165.929688 C 250.566406 168.492188 250.769531 171.820312 249.144531 175.558594 C 248.542969 176.9375 247.804688 178.117188 247.214844 178.960938 C 255.464844 179.691406 265.957031 179.882812 265.957031 179.882812 C 266.46875 179.914062 266.90625 179.523438 266.9375 179.011719 C 266.9375 179 266.9375 178.980469 266.9375 178.972656 C 266.945312 178.480469 266.566406 178.070312 266.074219 178.042969 L 262.246094 177.824219 C 262.953125 172.179688 267.003906 171.265625 271.273438 170.292969 C 273.164062 169.871094 274.953125 169.46875 276.375 168.621094 C 278.101562 167.605469 278.996094 166.105469 279.113281 164.046875 C 279.566406 155.773438 268.191406 151.46875 265.496094 150.578125 Z M 271.261719 160.976562 C 271.234375 161.488281 270.796875 161.875 270.285156 161.847656 C 269.773438 161.816406 269.382812 161.382812 269.410156 160.871094 L 269.511719 159.109375 C 269.542969 158.597656 269.976562 158.207031 270.488281 158.234375 C 271 158.265625 271.390625 158.703125 271.363281 159.214844 Z M 271.261719 160.976562 " fill-opacity="1" fill-rule="nonzero"/></g></g></g><g fill="#fffef4" fill-opacity="1"><g transform="translate(197.892092, 206.846928)"><g><path d="M 24.046875 -16.859375 C 25.578125 -15.117188 26.617188 -13.09375 27.171875 -10.78125 C 27.734375 -8.46875 27.609375 -6.210938 26.796875 -4.015625 C 26.066406 -2.085938 24.953125 -0.546875 23.453125 0.609375 C 21.960938 1.765625 20.296875 2.519531 18.453125 2.875 C 16.617188 3.238281 14.769531 3.226562 12.90625 2.84375 C 11.039062 2.457031 9.351562 1.695312 7.84375 0.5625 C 6.332031 -0.5625 5.1875 -2.03125 4.40625 -3.84375 C 4.019531 -4.800781 3.96875 -5.613281 4.25 -6.28125 C 4.53125 -6.945312 4.992188 -7.476562 5.640625 -7.875 C 6.285156 -8.28125 7.015625 -8.492188 7.828125 -8.515625 C 8.648438 -8.535156 9.425781 -8.347656 10.15625 -7.953125 C 10.882812 -7.554688 11.429688 -6.90625 11.796875 -6 C 11.960938 -5.5625 12.40625 -5.222656 13.125 -4.984375 C 13.84375 -4.742188 14.582031 -4.585938 15.34375 -4.515625 C 16.101562 -4.453125 16.648438 -4.453125 16.984375 -4.515625 C 17.753906 -4.660156 18.394531 -5.007812 18.90625 -5.5625 C 19.425781 -6.125 19.738281 -6.804688 19.84375 -7.609375 C 19.976562 -8.554688 19.835938 -9.40625 19.421875 -10.15625 C 19.003906 -10.914062 18.460938 -11.609375 17.796875 -12.234375 C 17.140625 -12.867188 16.46875 -13.492188 15.78125 -14.109375 C 15.09375 -14.734375 14.507812 -15.367188 14.03125 -16.015625 C 12.75 -17.898438 12.144531 -19.75 12.21875 -21.5625 C 12.289062 -23.375 12.847656 -25.046875 13.890625 -26.578125 C 14.929688 -28.117188 16.273438 -29.421875 17.921875 -30.484375 C 19.578125 -31.546875 21.332031 -32.265625 23.1875 -32.640625 C 24.1875 -32.804688 25.046875 -32.703125 25.765625 -32.328125 C 26.484375 -31.953125 27.039062 -31.410156 27.4375 -30.703125 C 27.84375 -29.992188 28.050781 -29.253906 28.0625 -28.484375 C 28.070312 -27.710938 27.863281 -27.023438 27.4375 -26.421875 C 27.007812 -25.828125 26.304688 -25.425781 25.328125 -25.21875 C 24.703125 -25.09375 23.957031 -24.894531 23.09375 -24.625 C 22.226562 -24.351562 21.472656 -23.953125 20.828125 -23.421875 C 20.179688 -22.898438 19.90625 -22.203125 20 -21.328125 C 20.039062 -20.753906 20.316406 -20.195312 20.828125 -19.65625 C 21.335938 -19.125 21.898438 -18.617188 22.515625 -18.140625 C 23.140625 -17.671875 23.648438 -17.242188 24.046875 -16.859375 Z M 24.046875 -16.859375 "/></g></g></g><g fill="#fffef4" fill-opacity="1"><g transform="translate(227.500519, 214.324075)"><g><path d="M 24.21875 -34.453125 C 24.445312 -35.429688 24.882812 -36.125 25.53125 -36.53125 C 26.175781 -36.9375 26.882812 -37.109375 27.65625 -37.046875 C 28.425781 -36.984375 29.144531 -36.734375 29.8125 -36.296875 C 30.488281 -35.859375 31 -35.269531 31.34375 -34.53125 C 31.6875 -33.800781 31.726562 -32.941406 31.46875 -31.953125 C 29.03125 -22.671875 27.175781 -13.273438 25.90625 -3.765625 C 25.769531 -2.785156 25.398438 -2.015625 24.796875 -1.453125 C 24.191406 -0.890625 23.488281 -0.539062 22.6875 -0.40625 C 21.894531 -0.269531 21.132812 -0.316406 20.40625 -0.546875 C 19.6875 -0.785156 19.109375 -1.21875 18.671875 -1.84375 C 18.242188 -2.46875 18.09375 -3.269531 18.21875 -4.25 C 18.414062 -5.84375 18.644531 -7.425781 18.90625 -9 C 19.164062 -10.582031 19.425781 -12.171875 19.6875 -13.765625 L 12.671875 -14.21875 C 12.304688 -12.207031 11.941406 -10.191406 11.578125 -8.171875 C 11.210938 -6.160156 10.84375 -4.144531 10.46875 -2.125 C 10.269531 -1.164062 9.859375 -0.414062 9.234375 0.125 C 8.617188 0.664062 7.910156 1.015625 7.109375 1.171875 C 6.316406 1.328125 5.550781 1.285156 4.8125 1.046875 C 4.082031 0.816406 3.507812 0.390625 3.09375 -0.234375 C 2.6875 -0.859375 2.582031 -1.648438 2.78125 -2.609375 C 3.269531 -5.421875 3.769531 -8.222656 4.28125 -11.015625 C 4.800781 -13.804688 5.300781 -16.59375 5.78125 -19.375 C 6.039062 -20.726562 6.300781 -22.078125 6.5625 -23.421875 C 6.820312 -24.765625 7.0625 -26.109375 7.28125 -27.453125 C 7.488281 -28.640625 7.675781 -29.894531 7.84375 -31.21875 C 8.007812 -32.550781 8.351562 -33.785156 8.875 -34.921875 C 9.28125 -35.816406 9.84375 -36.445312 10.5625 -36.8125 C 11.289062 -37.175781 12.054688 -37.320312 12.859375 -37.25 C 13.671875 -37.1875 14.398438 -36.9375 15.046875 -36.5 C 15.703125 -36.070312 16.15625 -35.503906 16.40625 -34.796875 C 16.65625 -34.097656 16.5625 -33.300781 16.125 -32.40625 C 15.632812 -31.300781 15.3125 -30.09375 15.15625 -28.78125 C 15.007812 -27.46875 14.832031 -26.242188 14.625 -25.109375 C 14.53125 -24.554688 14.429688 -24.007812 14.328125 -23.46875 C 14.222656 -22.925781 14.117188 -22.382812 14.015625 -21.84375 L 21.125 -21.40625 C 21.582031 -23.601562 22.066406 -25.789062 22.578125 -27.96875 C 23.085938 -30.144531 23.632812 -32.304688 24.21875 -34.453125 Z M 24.21875 -34.453125 "/></g></g></g><g fill="#fffef4" fill-opacity="1"><g transform="translate(261.792821, 215.692098)"><g><path d="M 2.171875 -31.953125 C 2.191406 -32.910156 2.460938 -33.710938 2.984375 -34.359375 C 3.515625 -35.015625 4.164062 -35.46875 4.9375 -35.71875 C 5.71875 -35.976562 6.488281 -36.046875 7.25 -35.921875 C 8.007812 -35.796875 8.632812 -35.457031 9.125 -34.90625 C 9.613281 -34.363281 9.851562 -33.597656 9.84375 -32.609375 C 9.632812 -23.285156 9.65625 -13.96875 9.90625 -4.65625 C 9.914062 -3.65625 9.671875 -2.84375 9.171875 -2.21875 C 8.679688 -1.59375 8.0625 -1.144531 7.3125 -0.875 C 6.5625 -0.613281 5.800781 -0.550781 5.03125 -0.6875 C 4.269531 -0.820312 3.613281 -1.15625 3.0625 -1.6875 C 2.519531 -2.226562 2.238281 -3 2.21875 -4 C 1.988281 -13.3125 1.972656 -22.628906 2.171875 -31.953125 Z M 2.171875 -31.953125 "/></g></g></g><g fill="#fffef4" fill-opacity="1"><g transform="translate(279.315219, 214.675804)"><g><path d="M 12.03125 -38.953125 C 13.78125 -38.660156 15.4375 -38.148438 17 -37.421875 C 18.5625 -36.691406 19.914062 -35.734375 21.0625 -34.546875 C 22.207031 -33.359375 23.023438 -31.976562 23.515625 -30.40625 C 24.015625 -28.832031 24.078125 -27.085938 23.703125 -25.171875 C 23.160156 -22.816406 22.125 -20.800781 20.59375 -19.125 C 19.0625 -17.445312 17.226562 -16.164062 15.09375 -15.28125 C 12.96875 -14.40625 10.769531 -13.960938 8.5 -13.953125 C 8.738281 -12.003906 8.988281 -10.054688 9.25 -8.109375 C 9.507812 -6.171875 9.765625 -4.222656 10.015625 -2.265625 C 10.128906 -1.316406 9.976562 -0.488281 9.5625 0.21875 C 9.15625 0.925781 8.59375 1.460938 7.875 1.828125 C 7.15625 2.203125 6.40625 2.382812 5.625 2.375 C 4.84375 2.363281 4.171875 2.125 3.609375 1.65625 C 3.054688 1.195312 2.695312 0.484375 2.53125 -0.484375 C 1.914062 -5.097656 1.289062 -9.691406 0.65625 -14.265625 C 0.03125 -18.847656 -0.5625 -23.425781 -1.125 -28 C -1.320312 -29.8125 -1.222656 -31.515625 -0.828125 -33.109375 C -0.429688 -34.703125 0.5625 -36.039062 2.15625 -37.125 C 3.59375 -38.09375 5.1875 -38.695312 6.9375 -38.9375 C 8.6875 -39.175781 10.382812 -39.179688 12.03125 -38.953125 Z M 7.453125 -21.65625 C 8.328125 -21.625 9.300781 -21.71875 10.375 -21.9375 C 11.457031 -22.164062 12.476562 -22.535156 13.4375 -23.046875 C 14.40625 -23.554688 15.160156 -24.21875 15.703125 -25.03125 C 16.253906 -25.84375 16.445312 -26.828125 16.28125 -27.984375 C 16.164062 -28.734375 15.742188 -29.378906 15.015625 -29.921875 C 14.285156 -30.472656 13.410156 -30.890625 12.390625 -31.171875 C 11.378906 -31.460938 10.398438 -31.609375 9.453125 -31.609375 C 8.503906 -31.617188 7.726562 -31.457031 7.125 -31.125 C 6.789062 -30.90625 6.585938 -30.769531 6.515625 -30.71875 C 6.441406 -30.675781 6.414062 -30.601562 6.4375 -30.5 C 6.46875 -30.394531 6.4375 -30.15625 6.34375 -29.78125 C 6.25 -29.3125 6.289062 -28.707031 6.46875 -27.96875 C 6.644531 -27.238281 6.773438 -26.601562 6.859375 -26.0625 C 6.972656 -25.300781 7.066406 -24.5625 7.140625 -23.84375 C 7.222656 -23.125 7.328125 -22.394531 7.453125 -21.65625 Z M 7.453125 -21.65625 "/></g></g></g><g fill="#fffef4" fill-opacity="1"><g transform="translate(81.117054, 215.166726)"><g><path d="M 15.140625 -21.140625 C 15.898438 -21.765625 16.664062 -22.082031 17.4375 -22.09375 C 18.207031 -22.113281 18.921875 -21.898438 19.578125 -21.453125 C 20.234375 -21.015625 20.738281 -20.4375 21.09375 -19.71875 C 21.457031 -19 21.59375 -18.253906 21.5 -17.484375 C 21.40625 -16.710938 20.984375 -15.992188 20.234375 -15.328125 C 18.867188 -14.140625 17.421875 -13.03125 15.890625 -12 C 14.359375 -10.96875 12.726562 -10.164062 11 -9.59375 C 9.28125 -9.03125 7.476562 -8.804688 5.59375 -8.921875 C 3.164062 -9.078125 0.992188 -9.863281 -0.921875 -11.28125 C -2.847656 -12.707031 -4.304688 -14.550781 -5.296875 -16.8125 C -6.222656 -19.019531 -6.679688 -21.34375 -6.671875 -23.78125 C -6.671875 -26.21875 -6.25 -28.582031 -5.40625 -30.875 C -4.5625 -33.164062 -3.328125 -35.207031 -1.703125 -37 C -0.078125 -38.800781 1.875 -40.140625 4.15625 -41.015625 C 5.070312 -41.378906 5.921875 -41.4375 6.703125 -41.1875 C 7.492188 -40.9375 8.144531 -40.5 8.65625 -39.875 C 9.164062 -39.25 9.5 -38.554688 9.65625 -37.796875 C 9.820312 -37.046875 9.734375 -36.328125 9.390625 -35.640625 C 9.054688 -34.960938 8.429688 -34.445312 7.515625 -34.09375 C 5.847656 -33.425781 4.472656 -32.382812 3.390625 -30.96875 C 2.304688 -29.550781 1.578125 -27.960938 1.203125 -26.203125 C 0.835938 -24.453125 0.910156 -22.710938 1.421875 -20.984375 C 1.804688 -19.460938 2.410156 -18.378906 3.234375 -17.734375 C 4.066406 -17.085938 5 -16.753906 6.03125 -16.734375 C 7.0625 -16.722656 8.125 -16.9375 9.21875 -17.375 C 10.320312 -17.8125 11.390625 -18.363281 12.421875 -19.03125 C 13.453125 -19.707031 14.359375 -20.410156 15.140625 -21.140625 Z M 15.140625 -21.140625 "/></g></g></g><g fill="#fffef4" fill-opacity="1"><g transform="translate(104.877309, 202.984853)"><g><path d="M 21.140625 -37.890625 C 22.222656 -36.742188 23.082031 -35.390625 23.71875 -33.828125 C 24.363281 -32.273438 24.847656 -30.664062 25.171875 -29 C 25.492188 -27.332031 25.6875 -25.753906 25.75 -24.265625 C 25.882812 -21.992188 25.640625 -19.765625 25.015625 -17.578125 C 24.398438 -15.390625 23.375 -13.382812 21.9375 -11.5625 C 20.550781 -9.84375 18.820312 -8.425781 16.75 -7.3125 C 14.675781 -6.207031 12.507812 -5.769531 10.25 -6 C 8.769531 -6.132812 7.40625 -6.59375 6.15625 -7.375 C 4.90625 -8.164062 3.789062 -9.128906 2.8125 -10.265625 C 1.832031 -11.398438 1.03125 -12.601562 0.40625 -13.875 C -0.300781 -15.257812 -0.890625 -16.910156 -1.359375 -18.828125 C -1.828125 -20.742188 -2.109375 -22.738281 -2.203125 -24.8125 C -2.304688 -26.882812 -2.15625 -28.867188 -1.75 -30.765625 C -1.34375 -32.671875 -0.609375 -34.335938 0.453125 -35.765625 C 1.503906 -37.421875 2.90625 -38.726562 4.65625 -39.6875 C 6.414062 -40.644531 8.300781 -41.242188 10.3125 -41.484375 C 12.320312 -41.722656 14.28125 -41.546875 16.1875 -40.953125 C 18.101562 -40.359375 19.753906 -39.335938 21.140625 -37.890625 Z M 16.125 -16.40625 C 17.050781 -17.726562 17.640625 -19.160156 17.890625 -20.703125 C 18.140625 -22.242188 18.164062 -23.800781 17.96875 -25.375 C 17.78125 -26.957031 17.425781 -28.46875 16.90625 -29.90625 C 16.394531 -31.332031 15.5625 -32.410156 14.40625 -33.140625 C 13.257812 -33.878906 11.898438 -34.070312 10.328125 -33.71875 C 9.453125 -33.53125 8.648438 -33.128906 7.921875 -32.515625 C 7.203125 -31.898438 6.648438 -31.191406 6.265625 -30.390625 C 5.835938 -29.410156 5.613281 -28.304688 5.59375 -27.078125 C 5.570312 -25.847656 5.597656 -24.722656 5.671875 -23.703125 C 5.847656 -21.398438 6.4375 -19.210938 7.4375 -17.140625 C 7.738281 -16.546875 8.097656 -15.957031 8.515625 -15.375 C 8.929688 -14.800781 9.453125 -14.375 10.078125 -14.09375 C 11.078125 -13.632812 12.117188 -13.613281 13.203125 -14.03125 C 14.296875 -14.457031 15.179688 -15.113281 15.859375 -16 C 15.941406 -16.125 16.03125 -16.257812 16.125 -16.40625 Z M 16.125 -16.40625 "/></g></g></g><g fill="#fffef4" fill-opacity="1"><g transform="translate(133.911002, 196.592327)"><g><path d="M 23.234375 -11.65625 C 24.203125 -11.863281 25.03125 -11.789062 25.71875 -11.4375 C 26.40625 -11.082031 26.9375 -10.554688 27.3125 -9.859375 C 27.6875 -9.171875 27.867188 -8.421875 27.859375 -7.609375 C 27.847656 -6.804688 27.617188 -6.085938 27.171875 -5.453125 C 26.722656 -4.816406 26.015625 -4.378906 25.046875 -4.140625 C 23.273438 -3.722656 21.472656 -3.414062 19.640625 -3.21875 C 17.804688 -3.019531 15.992188 -3.066406 14.203125 -3.359375 C 12.421875 -3.660156 10.722656 -4.304688 9.109375 -5.296875 C 7.035156 -6.566406 5.476562 -8.273438 4.4375 -10.421875 C 3.394531 -12.578125 2.96875 -14.882812 3.15625 -17.34375 C 3.363281 -19.726562 4.035156 -22 5.171875 -24.15625 C 6.316406 -26.3125 7.796875 -28.207031 9.609375 -29.84375 C 11.429688 -31.476562 13.472656 -32.707031 15.734375 -33.53125 C 17.992188 -34.363281 20.34375 -34.632812 22.78125 -34.34375 C 23.769531 -34.25 24.550781 -33.90625 25.125 -33.3125 C 25.707031 -32.726562 26.078125 -32.039062 26.234375 -31.25 C 26.398438 -30.457031 26.375 -29.6875 26.15625 -28.9375 C 25.945312 -28.195312 25.535156 -27.601562 24.921875 -27.15625 C 24.304688 -26.71875 23.503906 -26.550781 22.515625 -26.65625 C 20.742188 -26.851562 19.046875 -26.570312 17.421875 -25.8125 C 15.796875 -25.0625 14.414062 -24 13.28125 -22.625 C 12.144531 -21.25 11.394531 -19.675781 11.03125 -17.90625 C 10.664062 -16.375 10.695312 -15.132812 11.125 -14.1875 C 11.5625 -13.238281 12.226562 -12.515625 13.125 -12.015625 C 14.03125 -11.523438 15.070312 -11.21875 16.25 -11.09375 C 17.4375 -10.96875 18.640625 -10.957031 19.859375 -11.0625 C 21.078125 -11.175781 22.203125 -11.375 23.234375 -11.65625 Z M 23.234375 -11.65625 "/></g></g></g><g fill="#fffef4" fill-opacity="1"><g transform="translate(160.610762, 196.880788)"><g><path d="M 36.359375 -23.671875 C 36.785156 -22.171875 36.921875 -20.578125 36.765625 -18.890625 C 36.609375 -17.210938 36.28125 -15.5625 35.78125 -13.9375 C 35.289062 -12.320312 34.726562 -10.835938 34.09375 -9.484375 C 33.144531 -7.410156 31.890625 -5.546875 30.328125 -3.890625 C 28.765625 -2.234375 26.921875 -0.941406 24.796875 -0.015625 C 22.765625 0.859375 20.570312 1.300781 18.21875 1.3125 C 15.875 1.332031 13.757812 0.71875 11.875 -0.53125 C 10.625 -1.34375 9.628906 -2.382812 8.890625 -3.65625 C 8.148438 -4.9375 7.609375 -6.304688 7.265625 -7.765625 C 6.929688 -9.234375 6.785156 -10.675781 6.828125 -12.09375 C 6.859375 -13.644531 7.109375 -15.378906 7.578125 -17.296875 C 8.046875 -19.210938 8.722656 -21.109375 9.609375 -22.984375 C 10.492188 -24.867188 11.554688 -26.554688 12.796875 -28.046875 C 14.035156 -29.546875 15.457031 -30.671875 17.0625 -31.421875 C 18.757812 -32.398438 20.609375 -32.90625 22.609375 -32.9375 C 24.617188 -32.976562 26.566406 -32.628906 28.453125 -31.890625 C 30.335938 -31.160156 31.988281 -30.09375 33.40625 -28.6875 C 34.820312 -27.28125 35.804688 -25.609375 36.359375 -23.671875 Z M 21.921875 -7 C 23.347656 -7.75 24.53125 -8.742188 25.46875 -9.984375 C 26.40625 -11.234375 27.15625 -12.601562 27.71875 -14.09375 C 28.289062 -15.582031 28.679688 -17.082031 28.890625 -18.59375 C 29.109375 -20.09375 28.878906 -21.4375 28.203125 -22.625 C 27.523438 -23.8125 26.410156 -24.609375 24.859375 -25.015625 C 23.992188 -25.253906 23.097656 -25.269531 22.171875 -25.0625 C 21.242188 -24.863281 20.421875 -24.492188 19.703125 -23.953125 C 18.867188 -23.296875 18.15625 -22.429688 17.5625 -21.359375 C 16.976562 -20.285156 16.484375 -19.273438 16.078125 -18.328125 C 15.148438 -16.210938 14.648438 -14.003906 14.578125 -11.703125 C 14.554688 -11.035156 14.597656 -10.347656 14.703125 -9.640625 C 14.804688 -8.941406 15.066406 -8.320312 15.484375 -7.78125 C 16.160156 -6.90625 17.070312 -6.398438 18.21875 -6.265625 C 19.375 -6.140625 20.460938 -6.304688 21.484375 -6.765625 C 21.609375 -6.835938 21.753906 -6.914062 21.921875 -7 Z M 21.921875 -7 "/></g></g></g></svg>