<svg xmlns="http://www.w3.org/2000/svg" xmlns:xlink="http://www.w3.org/1999/xlink" width="500" zoomAndPan="magnify" viewBox="0 0 375 374.999991" height="500" preserveAspectRatio="xMidYMid meet" version="1.0"><defs><g/><clipPath id="8afc31e78b"><path d="M 222 146 L 273 146 L 273 182 L 222 182 Z M 222 146 " clip-rule="nonzero"/></clipPath><clipPath id="b66363a09e"><path d="M 223.863281 144.445312 L 273.285156 147.261719 L 271.277344 182.457031 L 221.855469 179.636719 Z M 223.863281 144.445312 " clip-rule="nonzero"/></clipPath><clipPath id="0871f537d2"><path d="M 223.863281 144.445312 L 273.285156 147.261719 L 271.277344 182.457031 L 221.855469 179.636719 Z M 223.863281 144.445312 " clip-rule="nonzero"/></clipPath></defs><g clip-path="url(#8afc31e78b)"><g clip-path="url(#b66363a09e)"><g clip-path="url(#0871f537d2)"><path fill="#830000" d="M 258.445312 151.769531 C 258.191406 150.621094 257.460938 148.089844 255.589844 146.925781 C 254.597656 146.308594 253.460938 146.15625 252.199219 146.476562 C 252.058594 146.507812 251.917969 146.558594 251.769531 146.601562 C 250.953125 146.878906 249.820312 147.359375 249.4375 148.382812 C 249.085938 149.320312 249.519531 150.234375 250.03125 151.113281 L 247.148438 150.949219 L 236.492188 150.339844 C 236.472656 150.339844 236.449219 150.335938 236.429688 150.335938 C 236.304688 150.339844 233.152344 150.367188 229.871094 152.183594 C 226.832031 153.886719 223.121094 157.464844 222.695312 164.964844 C 222.6875 165.082031 222.679688 165.191406 222.675781 165.296875 C 222.429688 170.960938 225.722656 176.234375 230.902344 178.550781 C 230.902344 178.550781 230.902344 178.550781 230.914062 178.550781 C 231.640625 178.941406 233.5 179.429688 235.347656 179.714844 C 235.359375 179.714844 235.378906 179.714844 235.386719 179.714844 C 235.40625 179.71875 235.425781 179.71875 235.445312 179.730469 C 235.457031 179.730469 235.476562 179.730469 235.484375 179.730469 L 236.890625 179.8125 C 237.253906 179.851562 237.628906 179.894531 238.011719 179.933594 C 239.160156 178.488281 243.40625 172.550781 240.050781 168.253906 C 239.738281 167.851562 239.808594 167.273438 240.210938 166.960938 C 240.613281 166.648438 241.191406 166.71875 241.507812 167.121094 C 243.511719 169.683594 243.71875 173.015625 242.09375 176.75 C 241.488281 178.128906 240.75 179.3125 240.160156 180.15625 C 248.410156 180.882812 258.90625 181.078125 258.90625 181.078125 C 259.417969 181.105469 259.851562 180.714844 259.882812 180.203125 C 259.882812 180.195312 259.882812 180.175781 259.882812 180.164062 C 259.894531 179.671875 259.511719 179.265625 259.019531 179.238281 L 255.191406 179.019531 C 255.898438 173.375 259.949219 172.457031 264.21875 171.488281 C 266.109375 171.0625 267.898438 170.660156 269.320312 169.816406 C 271.046875 168.796875 271.941406 167.296875 272.058594 165.242188 C 272.511719 156.964844 261.136719 152.664062 258.445312 151.769531 Z M 264.207031 162.167969 C 264.179688 162.679688 263.742188 163.070312 263.230469 163.039062 C 262.71875 163.011719 262.328125 162.574219 262.359375 162.0625 L 262.457031 160.300781 C 262.488281 159.789062 262.925781 159.398438 263.4375 159.429688 C 263.949219 159.457031 264.339844 159.894531 264.308594 160.40625 Z M 264.207031 162.167969 " fill-opacity="1" fill-rule="nonzero"/></g></g></g><g fill="#830000" fill-opacity="1"><g transform="translate(174.612577, 197.338472)"><g><path d="M 32.9375 -11.359375 C 31.800781 -8.117188 30.640625 -4.894531 29.453125 -1.6875 C 28.273438 1.519531 27.113281 4.738281 25.96875 7.96875 C 25.644531 8.894531 25.132812 9.539062 24.4375 9.90625 C 23.738281 10.28125 23.003906 10.421875 22.234375 10.328125 C 21.460938 10.234375 20.753906 9.953125 20.109375 9.484375 C 19.460938 9.015625 19 8.410156 18.71875 7.671875 C 18.445312 6.941406 18.472656 6.109375 18.796875 5.171875 C 19.140625 4.191406 19.488281 3.222656 19.84375 2.265625 C 20.207031 1.304688 20.550781 0.34375 20.875 -0.625 L 13.8125 -3.65625 C 13.09375 -2.570312 12.390625 -1.46875 11.703125 -0.34375 C 11.015625 0.78125 10.320312 1.90625 9.625 3.03125 C 9.101562 3.851562 8.484375 4.363281 7.765625 4.5625 C 7.046875 4.769531 6.316406 4.726562 5.578125 4.4375 C 4.847656 4.15625 4.234375 3.691406 3.734375 3.046875 C 3.242188 2.410156 2.941406 1.6875 2.828125 0.875 C 2.722656 0.0703125 2.921875 -0.742188 3.421875 -1.578125 C 5.222656 -4.484375 7.070312 -7.320312 8.96875 -10.09375 C 10.875 -12.875 13.046875 -15.460938 15.484375 -17.859375 C 16.679688 -19.046875 18.09375 -20.28125 19.71875 -21.5625 C 21.351562 -22.84375 23.070312 -23.925781 24.875 -24.8125 C 26.675781 -25.707031 28.472656 -26.195312 30.265625 -26.28125 C 31.941406 -26.320312 33.148438 -25.976562 33.890625 -25.25 C 34.628906 -24.519531 35.054688 -23.550781 35.171875 -22.34375 C 35.296875 -21.144531 35.226562 -19.859375 34.96875 -18.484375 C 34.71875 -17.117188 34.390625 -15.796875 33.984375 -14.515625 C 33.578125 -13.242188 33.226562 -12.191406 32.9375 -11.359375 Z M 19.125 -10.65625 C 19.039062 -10.539062 18.953125 -10.429688 18.859375 -10.328125 C 18.765625 -10.222656 18.660156 -10.117188 18.546875 -10.015625 C 19.398438 -9.648438 20.234375 -9.289062 21.046875 -8.9375 C 21.859375 -8.582031 22.671875 -8.226562 23.484375 -7.875 C 23.847656 -8.90625 24.222656 -9.9375 24.609375 -10.96875 C 24.992188 -12.007812 25.382812 -13.070312 25.78125 -14.15625 C 25.894531 -14.570312 26.039062 -15.007812 26.21875 -15.46875 C 26.40625 -15.9375 26.59375 -16.410156 26.78125 -16.890625 C 25.988281 -16.460938 25.28125 -16.019531 24.65625 -15.5625 C 23.644531 -14.851562 22.675781 -14.09375 21.75 -13.28125 C 20.832031 -12.46875 19.957031 -11.59375 19.125 -10.65625 Z M 19.125 -10.65625 "/></g></g></g><g fill="#830000" fill-opacity="1"><g transform="translate(205.058455, 208.909991)"><g><path d="M 17.703125 -34.125 C 19.617188 -33.394531 21.429688 -32.484375 23.140625 -31.390625 C 24.847656 -30.296875 26.363281 -28.894531 27.6875 -27.1875 C 29.101562 -25.320312 30.082031 -23.234375 30.625 -20.921875 C 31.175781 -18.609375 31.097656 -16.316406 30.390625 -14.046875 C 29.785156 -12.109375 28.8125 -10.394531 27.46875 -8.90625 C 26.132812 -7.414062 24.609375 -6.171875 22.890625 -5.171875 C 20.972656 -4.054688 18.816406 -3.28125 16.421875 -2.84375 C 14.035156 -2.40625 11.75 -2.039062 9.5625 -1.75 C 8.957031 -1.695312 8.347656 -1.660156 7.734375 -1.640625 C 7.117188 -1.617188 6.535156 -1.691406 5.984375 -1.859375 C 5.203125 -2.140625 4.578125 -2.648438 4.109375 -3.390625 C 3.640625 -4.140625 3.492188 -4.921875 3.671875 -5.734375 C 5.617188 -14.835938 7.789062 -23.9375 10.1875 -33.03125 C 10.445312 -34.050781 10.925781 -34.707031 11.625 -35 C 12.332031 -35.289062 13.113281 -35.367188 13.96875 -35.234375 C 14.832031 -35.097656 15.648438 -34.894531 16.421875 -34.625 C 16.859375 -34.46875 17.285156 -34.300781 17.703125 -34.125 Z M 22.5 -15.0625 C 23.21875 -16.34375 23.519531 -17.5625 23.40625 -18.71875 C 23.289062 -19.875 22.890625 -20.941406 22.203125 -21.921875 C 21.515625 -22.910156 20.648438 -23.78125 19.609375 -24.53125 C 18.566406 -25.28125 17.484375 -25.882812 16.359375 -26.34375 C 14.972656 -20.851562 13.679688 -15.421875 12.484375 -10.046875 C 13.796875 -10.210938 15.082031 -10.445312 16.34375 -10.75 C 17.601562 -11.0625 18.765625 -11.550781 19.828125 -12.21875 C 20.890625 -12.894531 21.78125 -13.84375 22.5 -15.0625 Z M 22.5 -15.0625 "/></g></g></g><g fill="#830000" fill-opacity="1"><g transform="translate(237.974528, 215.275945)"><g><path d="M 37.625 -19.703125 C 37.757812 -16.847656 37.75 -13.972656 37.59375 -11.078125 C 37.445312 -8.179688 37.296875 -5.289062 37.140625 -2.40625 C 37.066406 -1.4375 36.757812 -0.640625 36.21875 -0.015625 C 35.675781 0.597656 35.019531 1.007812 34.25 1.21875 C 33.476562 1.4375 32.707031 1.460938 31.9375 1.296875 C 31.175781 1.140625 30.550781 0.78125 30.0625 0.21875 C 29.582031 -0.332031 29.378906 -1.113281 29.453125 -2.125 C 29.609375 -4.375 29.78125 -6.695312 29.96875 -9.09375 C 30.15625 -11.5 30.242188 -13.898438 30.234375 -16.296875 C 30.234375 -18.703125 29.988281 -21.03125 29.5 -23.28125 C 29.40625 -23.675781 29.273438 -24.078125 29.109375 -24.484375 C 28.941406 -24.890625 28.832031 -25.296875 28.78125 -25.703125 C 28.414062 -25.253906 28.007812 -24.804688 27.5625 -24.359375 C 27.125 -23.921875 26.796875 -23.503906 26.578125 -23.109375 C 25.828125 -21.878906 25.257812 -20.613281 24.875 -19.3125 C 24.5 -18.019531 24.21875 -16.6875 24.03125 -15.3125 C 23.925781 -14.457031 23.585938 -13.789062 23.015625 -13.3125 C 22.453125 -12.84375 21.796875 -12.5625 21.046875 -12.46875 C 20.304688 -12.375 19.570312 -12.453125 18.84375 -12.703125 C 18.113281 -12.953125 17.515625 -13.359375 17.046875 -13.921875 C 16.578125 -14.484375 16.378906 -15.191406 16.453125 -16.046875 C 16.484375 -16.972656 16.507812 -17.910156 16.53125 -18.859375 C 16.550781 -19.804688 16.519531 -20.738281 16.4375 -21.65625 C 16.425781 -21.96875 16.421875 -22.40625 16.421875 -22.96875 C 16.421875 -23.53125 16.382812 -24.082031 16.3125 -24.625 C 16.238281 -25.164062 16.078125 -25.578125 15.828125 -25.859375 C 15.753906 -25.910156 15.738281 -25.972656 15.78125 -26.046875 C 15.738281 -26.046875 15.71875 -26.046875 15.71875 -26.046875 C 15.71875 -26.046875 15.703125 -26.046875 15.671875 -26.046875 C 15.359375 -25.960938 15.066406 -25.648438 14.796875 -25.109375 C 14.535156 -24.566406 14.335938 -24.195312 14.203125 -24 C 13.847656 -23.363281 13.539062 -22.707031 13.28125 -22.03125 C 13.019531 -21.351562 12.78125 -20.679688 12.5625 -20.015625 C 11.539062 -16.898438 10.921875 -13.722656 10.703125 -10.484375 C 10.492188 -7.242188 10.34375 -3.992188 10.25 -0.734375 C 10.21875 0.253906 9.9375 1.050781 9.40625 1.65625 C 8.882812 2.257812 8.238281 2.675781 7.46875 2.90625 C 6.707031 3.132812 5.945312 3.160156 5.1875 2.984375 C 4.4375 2.816406 3.800781 2.445312 3.28125 1.875 C 2.769531 1.3125 2.523438 0.535156 2.546875 -0.453125 C 2.628906 -3.160156 2.738281 -5.859375 2.875 -8.546875 C 3.019531 -11.234375 3.328125 -13.90625 3.796875 -16.5625 C 4.085938 -18.1875 4.484375 -19.890625 4.984375 -21.671875 C 5.484375 -23.453125 6.125 -25.160156 6.90625 -26.796875 C 7.6875 -28.441406 8.644531 -29.882812 9.78125 -31.125 C 10.875 -32.257812 12.171875 -33.050781 13.671875 -33.5 C 15.179688 -33.957031 16.671875 -33.976562 18.140625 -33.5625 C 19.609375 -33.15625 20.847656 -32.265625 21.859375 -30.890625 C 21.898438 -30.796875 21.957031 -30.695312 22.03125 -30.59375 C 22.101562 -30.5 22.15625 -30.414062 22.1875 -30.34375 C 23.132812 -31.539062 24.1875 -32.515625 25.34375 -33.265625 C 26.5 -34.015625 27.710938 -34.375 28.984375 -34.34375 C 30.253906 -34.320312 31.578125 -33.757812 32.953125 -32.65625 C 34.179688 -31.632812 35.109375 -30.398438 35.734375 -28.953125 C 36.367188 -27.503906 36.816406 -25.976562 37.078125 -24.375 C 37.347656 -22.769531 37.53125 -21.210938 37.625 -19.703125 Z M 37.625 -19.703125 "/></g></g></g><g fill="#830000" fill-opacity="1"><g transform="translate(281.422057, 212.309682)"><g><path d="M -1.90625 -31.96875 C -2 -32.925781 -1.828125 -33.757812 -1.390625 -34.46875 C -0.953125 -35.175781 -0.367188 -35.703125 0.359375 -36.046875 C 1.097656 -36.398438 1.851562 -36.566406 2.625 -36.546875 C 3.40625 -36.523438 4.070312 -36.269531 4.625 -35.78125 C 5.175781 -35.300781 5.507812 -34.570312 5.625 -33.59375 C 6.601562 -24.3125 7.804688 -15.070312 9.234375 -5.875 C 9.367188 -4.894531 9.226562 -4.0625 8.8125 -3.375 C 8.40625 -2.6875 7.847656 -2.160156 7.140625 -1.796875 C 6.429688 -1.441406 5.6875 -1.28125 4.90625 -1.3125 C 4.125 -1.351562 3.429688 -1.609375 2.828125 -2.078125 C 2.222656 -2.546875 1.847656 -3.273438 1.703125 -4.265625 C 0.285156 -13.460938 -0.914062 -22.695312 -1.90625 -31.96875 Z M -1.90625 -31.96875 "/></g></g></g><g fill="#830000" fill-opacity="1"><g transform="translate(298.679802, 209.079136)"><g><path d="M 10.09375 -37.109375 C 9.875 -38.097656 9.953125 -38.898438 10.328125 -39.515625 C 10.710938 -40.140625 11.269531 -40.578125 12 -40.828125 C 12.738281 -41.085938 13.507812 -41.160156 14.3125 -41.046875 C 15.113281 -40.929688 15.835938 -40.601562 16.484375 -40.0625 C 17.128906 -39.519531 17.5625 -38.773438 17.78125 -37.828125 C 19.800781 -28.503906 21.484375 -19.117188 22.828125 -9.671875 C 22.941406 -8.921875 22.800781 -8.210938 22.40625 -7.546875 C 22.019531 -6.890625 21.476562 -6.363281 20.78125 -5.96875 C 20.09375 -5.582031 19.363281 -5.398438 18.59375 -5.421875 C 17.832031 -5.441406 17.160156 -5.742188 16.578125 -6.328125 C 15.179688 -7.816406 13.769531 -9.285156 12.34375 -10.734375 C 10.914062 -12.191406 9.484375 -13.648438 8.046875 -15.109375 C 8.359375 -12.847656 8.6875 -10.585938 9.03125 -8.328125 C 9.375 -6.066406 9.753906 -3.804688 10.171875 -1.546875 C 10.335938 -0.585938 10.210938 0.207031 9.796875 0.84375 C 9.390625 1.476562 8.828125 1.929688 8.109375 2.203125 C 7.390625 2.472656 6.628906 2.539062 5.828125 2.40625 C 5.023438 2.269531 4.3125 1.9375 3.6875 1.40625 C 3.0625 0.882812 2.675781 0.132812 2.53125 -0.84375 C 1.0625 -9 -0.0664062 -17.203125 -0.859375 -25.453125 C -0.929688 -26.234375 -0.765625 -26.957031 -0.359375 -27.625 C 0.0351562 -28.289062 0.566406 -28.820312 1.234375 -29.21875 C 1.910156 -29.625 2.625 -29.8125 3.375 -29.78125 C 4.125 -29.75 4.796875 -29.425781 5.390625 -28.8125 L 13.296875 -20.65625 C 12.847656 -23.414062 12.351562 -26.164062 11.8125 -28.90625 C 11.269531 -31.644531 10.695312 -34.378906 10.09375 -37.109375 Z M 10.09375 -37.109375 "/></g></g></g><g fill="#830000" fill-opacity="1"><g transform="translate(61.049767, 213.973347)"><g><path d="M 15.140625 -21.140625 C 15.898438 -21.765625 16.664062 -22.082031 17.4375 -22.09375 C 18.207031 -22.113281 18.921875 -21.898438 19.578125 -21.453125 C 20.234375 -21.015625 20.738281 -20.4375 21.09375 -19.71875 C 21.457031 -19 21.59375 -18.253906 21.5 -17.484375 C 21.40625 -16.710938 20.984375 -15.992188 20.234375 -15.328125 C 18.867188 -14.140625 17.421875 -13.03125 15.890625 -12 C 14.359375 -10.96875 12.726562 -10.164062 11 -9.59375 C 9.28125 -9.03125 7.476562 -8.804688 5.59375 -8.921875 C 3.164062 -9.078125 0.992188 -9.863281 -0.921875 -11.28125 C -2.847656 -12.707031 -4.304688 -14.550781 -5.296875 -16.8125 C -6.222656 -19.019531 -6.679688 -21.34375 -6.671875 -23.78125 C -6.671875 -26.21875 -6.25 -28.582031 -5.40625 -30.875 C -4.5625 -33.164062 -3.328125 -35.207031 -1.703125 -37 C -0.078125 -38.800781 1.875 -40.140625 4.15625 -41.015625 C 5.070312 -41.378906 5.921875 -41.4375 6.703125 -41.1875 C 7.492188 -40.9375 8.144531 -40.5 8.65625 -39.875 C 9.164062 -39.25 9.5 -38.554688 9.65625 -37.796875 C 9.820312 -37.046875 9.734375 -36.328125 9.390625 -35.640625 C 9.054688 -34.960938 8.429688 -34.445312 7.515625 -34.09375 C 5.847656 -33.425781 4.472656 -32.382812 3.390625 -30.96875 C 2.304688 -29.550781 1.578125 -27.960938 1.203125 -26.203125 C 0.835938 -24.453125 0.910156 -22.710938 1.421875 -20.984375 C 1.804688 -19.460938 2.410156 -18.378906 3.234375 -17.734375 C 4.066406 -17.085938 5 -16.753906 6.03125 -16.734375 C 7.0625 -16.722656 8.125 -16.9375 9.21875 -17.375 C 10.320312 -17.8125 11.390625 -18.363281 12.421875 -19.03125 C 13.453125 -19.707031 14.359375 -20.410156 15.140625 -21.140625 Z M 15.140625 -21.140625 "/></g></g></g><g fill="#830000" fill-opacity="1"><g transform="translate(84.81003, 201.791475)"><g><path d="M 21.140625 -37.890625 C 22.222656 -36.742188 23.082031 -35.390625 23.71875 -33.828125 C 24.363281 -32.273438 24.847656 -30.664062 25.171875 -29 C 25.492188 -27.332031 25.6875 -25.753906 25.75 -24.265625 C 25.882812 -21.992188 25.640625 -19.765625 25.015625 -17.578125 C 24.398438 -15.390625 23.375 -13.382812 21.9375 -11.5625 C 20.550781 -9.84375 18.820312 -8.425781 16.75 -7.3125 C 14.675781 -6.207031 12.507812 -5.769531 10.25 -6 C 8.769531 -6.132812 7.40625 -6.59375 6.15625 -7.375 C 4.90625 -8.164062 3.789062 -9.128906 2.8125 -10.265625 C 1.832031 -11.398438 1.03125 -12.601562 0.40625 -13.875 C -0.300781 -15.257812 -0.890625 -16.910156 -1.359375 -18.828125 C -1.828125 -20.742188 -2.109375 -22.738281 -2.203125 -24.8125 C -2.304688 -26.882812 -2.15625 -28.867188 -1.75 -30.765625 C -1.34375 -32.671875 -0.609375 -34.335938 0.453125 -35.765625 C 1.503906 -37.421875 2.90625 -38.726562 4.65625 -39.6875 C 6.414062 -40.644531 8.300781 -41.242188 10.3125 -41.484375 C 12.320312 -41.722656 14.28125 -41.546875 16.1875 -40.953125 C 18.101562 -40.359375 19.753906 -39.335938 21.140625 -37.890625 Z M 16.125 -16.40625 C 17.050781 -17.726562 17.640625 -19.160156 17.890625 -20.703125 C 18.140625 -22.242188 18.164062 -23.800781 17.96875 -25.375 C 17.78125 -26.957031 17.425781 -28.46875 16.90625 -29.90625 C 16.394531 -31.332031 15.5625 -32.410156 14.40625 -33.140625 C 13.257812 -33.878906 11.898438 -34.070312 10.328125 -33.71875 C 9.453125 -33.53125 8.648438 -33.128906 7.921875 -32.515625 C 7.203125 -31.898438 6.648438 -31.191406 6.265625 -30.390625 C 5.835938 -29.410156 5.613281 -28.304688 5.59375 -27.078125 C 5.570312 -25.847656 5.597656 -24.722656 5.671875 -23.703125 C 5.847656 -21.398438 6.4375 -19.210938 7.4375 -17.140625 C 7.738281 -16.546875 8.097656 -15.957031 8.515625 -15.375 C 8.929688 -14.800781 9.453125 -14.375 10.078125 -14.09375 C 11.078125 -13.632812 12.117188 -13.613281 13.203125 -14.03125 C 14.296875 -14.457031 15.179688 -15.113281 15.859375 -16 C 15.941406 -16.125 16.03125 -16.257812 16.125 -16.40625 Z M 16.125 -16.40625 "/></g></g></g><g fill="#830000" fill-opacity="1"><g transform="translate(113.84372, 195.398946)"><g><path d="M 23.234375 -11.65625 C 24.203125 -11.863281 25.03125 -11.789062 25.71875 -11.4375 C 26.40625 -11.082031 26.9375 -10.554688 27.3125 -9.859375 C 27.6875 -9.171875 27.867188 -8.421875 27.859375 -7.609375 C 27.847656 -6.804688 27.617188 -6.085938 27.171875 -5.453125 C 26.722656 -4.816406 26.015625 -4.378906 25.046875 -4.140625 C 23.273438 -3.722656 21.472656 -3.414062 19.640625 -3.21875 C 17.804688 -3.019531 15.992188 -3.066406 14.203125 -3.359375 C 12.421875 -3.660156 10.722656 -4.304688 9.109375 -5.296875 C 7.035156 -6.566406 5.476562 -8.273438 4.4375 -10.421875 C 3.394531 -12.578125 2.96875 -14.882812 3.15625 -17.34375 C 3.363281 -19.726562 4.035156 -22 5.171875 -24.15625 C 6.316406 -26.3125 7.796875 -28.207031 9.609375 -29.84375 C 11.429688 -31.476562 13.472656 -32.707031 15.734375 -33.53125 C 17.992188 -34.363281 20.34375 -34.632812 22.78125 -34.34375 C 23.769531 -34.25 24.550781 -33.90625 25.125 -33.3125 C 25.707031 -32.726562 26.078125 -32.039062 26.234375 -31.25 C 26.398438 -30.457031 26.375 -29.6875 26.15625 -28.9375 C 25.945312 -28.195312 25.535156 -27.601562 24.921875 -27.15625 C 24.304688 -26.71875 23.503906 -26.550781 22.515625 -26.65625 C 20.742188 -26.851562 19.046875 -26.570312 17.421875 -25.8125 C 15.796875 -25.0625 14.414062 -24 13.28125 -22.625 C 12.144531 -21.25 11.394531 -19.675781 11.03125 -17.90625 C 10.664062 -16.375 10.695312 -15.132812 11.125 -14.1875 C 11.5625 -13.238281 12.226562 -12.515625 13.125 -12.015625 C 14.03125 -11.523438 15.070312 -11.21875 16.25 -11.09375 C 17.4375 -10.96875 18.640625 -10.957031 19.859375 -11.0625 C 21.078125 -11.175781 22.203125 -11.375 23.234375 -11.65625 Z M 23.234375 -11.65625 "/></g></g></g><g fill="#830000" fill-opacity="1"><g transform="translate(140.54349, 195.687408)"><g><path d="M 36.359375 -23.671875 C 36.785156 -22.171875 36.921875 -20.578125 36.765625 -18.890625 C 36.609375 -17.210938 36.28125 -15.5625 35.78125 -13.9375 C 35.289062 -12.320312 34.726562 -10.835938 34.09375 -9.484375 C 33.144531 -7.410156 31.890625 -5.546875 30.328125 -3.890625 C 28.765625 -2.234375 26.921875 -0.941406 24.796875 -0.015625 C 22.765625 0.859375 20.570312 1.300781 18.21875 1.3125 C 15.875 1.332031 13.757812 0.71875 11.875 -0.53125 C 10.625 -1.34375 9.628906 -2.382812 8.890625 -3.65625 C 8.148438 -4.9375 7.609375 -6.304688 7.265625 -7.765625 C 6.929688 -9.234375 6.785156 -10.675781 6.828125 -12.09375 C 6.859375 -13.644531 7.109375 -15.378906 7.578125 -17.296875 C 8.046875 -19.210938 8.722656 -21.109375 9.609375 -22.984375 C 10.492188 -24.867188 11.554688 -26.554688 12.796875 -28.046875 C 14.035156 -29.546875 15.457031 -30.671875 17.0625 -31.421875 C 18.757812 -32.398438 20.609375 -32.90625 22.609375 -32.9375 C 24.617188 -32.976562 26.566406 -32.628906 28.453125 -31.890625 C 30.335938 -31.160156 31.988281 -30.09375 33.40625 -28.6875 C 34.820312 -27.28125 35.804688 -25.609375 36.359375 -23.671875 Z M 21.921875 -7 C 23.347656 -7.75 24.53125 -8.742188 25.46875 -9.984375 C 26.40625 -11.234375 27.15625 -12.601562 27.71875 -14.09375 C 28.289062 -15.582031 28.679688 -17.082031 28.890625 -18.59375 C 29.109375 -20.09375 28.878906 -21.4375 28.203125 -22.625 C 27.523438 -23.8125 26.410156 -24.609375 24.859375 -25.015625 C 23.992188 -25.253906 23.097656 -25.269531 22.171875 -25.0625 C 21.242188 -24.863281 20.421875 -24.492188 19.703125 -23.953125 C 18.867188 -23.296875 18.15625 -22.429688 17.5625 -21.359375 C 16.976562 -20.285156 16.484375 -19.273438 16.078125 -18.328125 C 15.148438 -16.210938 14.648438 -14.003906 14.578125 -11.703125 C 14.554688 -11.035156 14.597656 -10.347656 14.703125 -9.640625 C 14.804688 -8.941406 15.066406 -8.320312 15.484375 -7.78125 C 16.160156 -6.90625 17.070312 -6.398438 18.21875 -6.265625 C 19.375 -6.140625 20.460938 -6.304688 21.484375 -6.765625 C 21.609375 -6.835938 21.753906 -6.914062 21.921875 -7 Z M 21.921875 -7 "/></g></g></g></svg>