<svg xmlns="http://www.w3.org/2000/svg" xmlns:xlink="http://www.w3.org/1999/xlink" width="500" zoomAndPan="magnify" viewBox="0 0 375 374.999991" height="500" preserveAspectRatio="xMidYMid meet" version="1.0"><defs><g/><clipPath id="418696f3ee"><path d="M 104.5625 95.4375 L 270.4375 95.4375 L 270.4375 261.308594 L 104.5625 261.308594 Z M 104.5625 95.4375 " clip-rule="nonzero"/></clipPath><clipPath id="1969e20fef"><path d="M 187.5 95.4375 C 141.695312 95.4375 104.5625 132.570312 104.5625 178.375 C 104.5625 224.179688 141.695312 261.308594 187.5 261.308594 C 233.304688 261.308594 270.4375 224.179688 270.4375 178.375 C 270.4375 132.570312 233.304688 95.4375 187.5 95.4375 Z M 187.5 95.4375 " clip-rule="nonzero"/></clipPath><clipPath id="de68b0ede8"><path d="M 115.453125 125.222656 L 265.453125 125.222656 L 265.453125 231 L 115.453125 231 Z M 115.453125 125.222656 " clip-rule="nonzero"/></clipPath></defs><g clip-path="url(#418696f3ee)"><g clip-path="url(#1969e20fef)"><path fill="#830000" d="M 104.5625 95.4375 L 270.4375 95.4375 L 270.4375 261.308594 L 104.5625 261.308594 Z M 104.5625 95.4375 " fill-opacity="1" fill-rule="nonzero"/></g></g><g clip-path="url(#de68b0ede8)"><path fill="#ffffff" d="M 221.5625 141.453125 C 220.605469 138.007812 217.941406 130.464844 212.074219 127.265625 C 208.960938 125.558594 205.488281 125.289062 201.71875 126.484375 C 201.296875 126.605469 200.878906 126.785156 200.429688 126.933594 C 198.007812 127.921875 194.652344 129.570312 193.667969 132.742188 C 192.769531 135.644531 194.234375 138.339844 195.941406 140.914062 L 154.753906 140.914062 C 154.695312 140.914062 154.636719 140.914062 154.574219 140.914062 C 154.1875 140.941406 144.636719 141.570312 135 147.648438 C 126.082031 153.335938 115.453125 164.828125 115.453125 187.636719 C 115.453125 187.996094 115.453125 188.324219 115.453125 188.652344 C 115.695312 205.863281 126.589844 221.28125 142.691406 227.414062 C 142.691406 227.414062 142.691406 227.414062 142.722656 227.414062 C 144.996094 228.464844 150.714844 229.628906 156.371094 230.167969 C 156.402344 230.167969 156.460938 230.167969 156.492188 230.167969 C 156.550781 230.167969 156.609375 230.167969 156.671875 230.199219 C 156.699219 230.199219 156.761719 230.199219 156.789062 230.199219 L 161.070312 230.199219 C 162.179688 230.257812 163.316406 230.320312 164.484375 230.378906 C 167.714844 225.800781 179.566406 207.0625 168.644531 194.609375 C 167.625 193.441406 167.746094 191.675781 168.914062 190.660156 C 170.078125 189.640625 171.847656 189.761719 172.863281 190.929688 C 179.390625 198.351562 180.585938 208.410156 176.304688 220.023438 C 174.71875 224.300781 172.683594 228.015625 171.039062 230.679688 C 196.179688 231.457031 228.027344 230.230469 228.027344 230.230469 C 229.585938 230.230469 230.839844 228.972656 230.839844 227.414062 C 230.839844 227.386719 230.839844 227.324219 230.839844 227.296875 C 230.78125 225.800781 229.554688 224.632812 228.058594 224.632812 L 216.414062 224.632812 C 217.582031 207.390625 229.703125 203.917969 242.484375 200.238281 C 248.140625 198.621094 253.5 197.09375 257.660156 194.28125 C 262.71875 190.898438 265.171875 186.199219 265.171875 179.945312 C 265.113281 154.769531 229.882812 143.695312 221.5625 141.453125 Z M 240.839844 171.980469 C 240.839844 173.539062 239.582031 174.796875 238.023438 174.796875 C 236.46875 174.796875 235.210938 173.539062 235.210938 171.980469 L 235.210938 166.625 C 235.210938 165.066406 236.46875 163.808594 238.023438 163.808594 C 239.582031 163.808594 240.839844 165.066406 240.839844 166.625 Z M 240.839844 171.980469 " fill-opacity="1" fill-rule="nonzero"/></g><path stroke-linecap="butt" transform="matrix(0.543877, 0.516428, -0.516428, 0.543877, 107.107423, 194.413552)" fill="none" stroke-linejoin="miter" d="M 24.068948 35.918927 C 25.074004 35.661271 25.942293 35.705854 26.684955 36.049279 C 27.424031 36.388928 27.999555 36.926966 28.415686 37.645083 C 28.835404 38.366976 29.054598 39.149992 29.07327 39.99413 C 29.091942 40.838269 28.87312 41.606261 28.413217 42.29433 C 27.964455 42.979004 27.237069 43.468577 26.234836 43.759462 C 24.39465 44.257068 22.509366 44.646667 20.571813 44.920707 C 18.64559 45.183988 16.729626 45.193332 14.842423 44.945536 C 12.948047 44.690186 11.14023 44.07972 9.415386 43.110363 C 7.178773 41.844083 5.474135 40.094223 4.305247 37.857198 C 3.13636 35.620173 2.602081 33.20432 2.706186 30.606053 C 2.84501 28.089735 3.478469 25.678324 4.595424 23.375216 C 5.712759 21.057381 7.202534 19.010758 9.057385 17.235156 C 10.912618 15.444828 13.025838 14.077479 15.38251 13.125366 C 17.750322 12.169858 20.209938 11.795127 22.764943 12.00495 C 23.809187 12.08356 24.647761 12.4221 25.284253 13.024347 C 25.917539 13.60809 26.333861 14.318843 26.526045 15.149053 C 26.72937 15.975867 26.726905 16.782617 26.525824 17.576857 C 26.332106 18.371288 25.917717 19.008959 25.282276 19.504596 C 24.650802 19.989283 23.809262 20.192227 22.76105 20.124565 C 20.886096 19.972872 19.108627 20.324738 17.428645 21.180163 C 15.756217 22.028414 14.344445 23.196561 13.189362 24.695552 C 12.038057 26.190957 11.298103 27.877531 10.973279 29.751688 C 10.655126 31.368132 10.739198 32.674473 11.225495 33.670712 C 11.708396 34.655811 12.433401 35.39666 13.404288 35.889673 C 14.379142 36.371736 15.487904 36.66201 16.727179 36.749353 C 17.977593 36.833301 19.238421 36.799628 20.517216 36.641161 C 21.803374 36.482885 22.988543 36.240945 24.068948 35.918927 Z M 24.068948 35.918927 " stroke="#830000" stroke-width="14.196814" stroke-opacity="1" stroke-miterlimit="4"/><path stroke-linecap="butt" transform="matrix(0.636455, 0.396768, -0.396768, 0.636455, 121.312511, 208.599639)" fill="none" stroke-linejoin="miter" d="M 30.062687 15.951062 C 30.934463 17.359323 31.527791 18.941169 31.847089 20.693847 C 32.172471 22.436593 32.315089 24.201213 32.282117 25.989371 C 32.246391 27.773109 32.10866 29.442448 31.858995 30.991305 C 31.500169 33.369265 30.762207 35.621466 29.640689 37.750664 C 28.526346 39.881527 27.026434 41.718791 25.150885 43.26854 C 23.348291 44.748258 21.255757 45.8318 18.866107 46.517501 C 16.489717 47.194936 14.169337 47.174603 11.895037 46.450417 C 10.38452 45.986588 9.067037 45.212159 7.949762 44.128793 C 6.832488 43.045427 5.893154 41.814308 5.13618 40.432679 C 4.378115 39.039455 3.821585 37.624932 3.461079 36.18027 C 3.026752 34.597502 2.777654 32.770374 2.709365 30.701642 C 2.635565 28.62407 2.779888 26.502583 3.142334 24.337179 C 3.504781 22.171775 4.098384 20.150731 4.925899 18.278466 C 5.750658 16.40178 6.870408 14.850611 8.280728 13.627712 C 9.72336 12.151445 11.45203 11.104474 13.467828 10.498395 C 15.482535 9.880722 17.556947 9.673866 19.686645 9.880584 C 21.815251 10.075707 23.795426 10.682513 25.628261 11.712597 C 27.468271 12.744346 28.944021 14.156613 30.062687 15.951062 Z M 20.227995 36.996193 C 21.451074 35.847058 22.356378 34.503225 22.946661 32.969114 C 23.545783 31.429491 23.91421 29.825011 24.05636 28.152916 C 24.205686 26.482485 24.173338 24.845523 23.964827 23.250869 C 23.745812 21.6689 23.119025 20.377963 22.086132 19.370882 C 21.057658 18.361045 19.696785 17.87144 18.006268 17.906487 C 17.068277 17.908169 16.156524 18.138996 15.276517 18.607807 C 14.393756 19.072199 13.665406 19.68583 13.085957 20.439861 C 12.443943 21.349507 11.977294 22.432157 11.686007 23.68781 C 11.393056 24.950639 11.178055 26.121911 11.036582 27.204382 C 10.714149 29.62103 10.835081 32.000645 11.406553 34.344892 C 11.595128 35.031348 11.832839 35.71786 12.13128 36.403337 C 12.442981 37.080549 12.884004 37.640315 13.465944 38.081546 C 14.397633 38.758918 15.468396 38.999752 16.673815 38.806804 C 17.892492 38.60559 18.949179 38.124836 19.846629 37.368962 C 19.958272 37.262539 20.084839 37.140674 20.227995 36.996193 Z M 20.227995 36.996193 " stroke="#830000" stroke-width="14.196814" stroke-opacity="1" stroke-miterlimit="4"/><path stroke-linecap="butt" transform="matrix(0.703135, 0.260963, -0.260963, 0.703135, 140.212891, 220.694282)" fill="none" stroke-linejoin="miter" d="M 24.072019 36.022262 C 25.073966 35.728173 25.943726 35.766475 26.682555 36.125589 C 27.423197 36.489585 28.001698 37.030424 28.413175 37.749918 C 28.83623 38.47067 29.056721 39.244381 29.07646 40.075932 C 29.089504 40.904413 28.872951 41.668109 28.412152 42.372457 C 27.962931 43.078064 27.24077 43.557197 26.23409 43.808597 C 24.394955 44.346736 22.508148 44.741459 20.570598 44.999461 C 18.642814 45.253838 16.73476 45.262007 14.841555 45.02578 C 12.94835 44.789552 11.139914 44.18298 9.414987 43.217639 C 7.176095 41.915283 5.475225 40.14658 4.30568 37.908462 C 3.131252 35.672156 2.599251 33.280751 2.706052 30.72448 C 2.846882 28.200024 3.47565 25.777802 4.595426 23.451121 C 5.71339 21.119556 7.19858 19.073915 9.055879 17.312385 C 10.916248 15.54416 13.022728 14.184587 15.380202 13.231851 C 17.747441 12.275492 20.212746 11.882728 22.761466 12.058997 C 23.808369 12.17044 24.652659 12.529301 25.285829 13.127627 C 25.915374 13.716187 26.33118 14.417408 26.526552 15.228218 C 26.726807 16.037216 26.728977 16.8364 26.523297 17.629393 C 26.334079 18.421833 25.919189 19.070254 25.282252 19.584422 C 24.651456 20.0852 23.807724 20.28168 22.762633 20.17512 C 20.885587 20.027338 19.111086 20.380379 17.427552 21.232985 C 15.758666 22.080154 14.339817 23.25674 13.191089 24.771955 C 12.035667 26.2841 11.297859 27.963468 10.969158 29.802106 C 10.655709 31.457309 10.736563 32.782837 11.221487 33.775068 C 11.708223 34.772181 12.434823 35.502495 13.401287 35.966011 C 14.381141 36.435667 15.488402 36.724706 16.726694 36.842893 C 17.976011 36.945878 19.240428 36.909927 20.519946 36.735039 C 21.800723 36.548574 22.985955 36.314237 24.072019 36.022262 Z M 24.072019 36.022262 " stroke="#830000" stroke-width="14.196814" stroke-opacity="1" stroke-miterlimit="4"/><path stroke-linecap="butt" transform="matrix(0.741202, 0.114539, -0.114539, 0.741202, 158.851854, 228.15142)" fill="none" stroke-linejoin="miter" d="M 30.064353 15.951125 C 30.935666 17.360635 31.527529 18.939813 31.845884 20.69301 C 32.172943 22.434321 32.319053 24.198325 32.279067 25.985816 C 32.244228 27.772512 32.107149 29.443253 31.86109 30.988541 C 31.496399 33.369036 30.759005 35.622669 29.638611 37.751032 C 28.523364 39.8786 27.026993 41.722503 25.153053 43.271653 C 23.346777 44.747104 21.253151 45.829537 18.867027 46.519747 C 16.489607 47.198072 14.166757 47.172304 11.894921 46.453533 C 10.383935 45.986097 9.067566 45.209268 7.946608 44.128195 C 6.830798 43.046325 5.891492 41.810697 5.13543 40.430808 C 4.377778 39.040625 3.821663 37.624569 3.461143 36.178286 C 3.026879 34.595835 2.776187 32.76894 2.703921 30.698397 C 2.636006 28.621911 2.782685 26.501723 3.143956 24.337833 C 3.504432 22.168797 4.099433 20.153244 4.926572 18.275734 C 5.754506 16.403371 6.868949 14.850374 8.277434 13.63139 C 9.724153 12.14826 11.449939 11.106859 13.469439 10.499654 C 15.482201 9.88295 17.558595 9.678026 19.687533 9.881324 C 21.814879 10.074328 23.795992 10.68519 25.625724 11.714708 C 27.46575 12.742635 28.944107 14.15847 30.064353 15.951125 Z M 20.225605 36.997442 C 21.449211 35.843918 22.359072 34.501721 22.944894 32.972441 C 23.544568 31.43048 23.912944 29.824129 24.055171 28.152592 C 24.207693 26.479464 24.176504 24.845266 23.962401 23.255144 C 23.743947 21.670965 23.117032 20.376522 22.086805 19.37102 C 21.06093 18.359576 19.699214 17.869073 18.008396 17.909011 C 17.064769 17.907266 16.157731 18.142295 15.275396 18.605393 C 14.393856 19.073638 13.666451 19.68671 13.08209 20.441051 C 12.441996 21.346299 11.977046 22.430018 11.686445 23.687061 C 11.396638 24.949251 11.177257 26.121505 11.038594 27.202234 C 10.711946 29.624281 10.837084 32.002863 11.409657 34.343924 C 11.595042 35.032017 11.832694 35.717304 12.133704 36.40334 C 12.444212 37.082638 12.888878 37.641071 13.467702 38.07864 C 14.399902 38.75673 15.470803 39.002315 16.673666 38.805894 C 17.89197 38.607088 18.944959 38.122889 19.845314 37.367148 C 19.960473 37.259759 20.084335 37.140486 20.225605 36.997442 Z M 20.225605 36.997442 " stroke="#830000" stroke-width="14.196814" stroke-opacity="1" stroke-miterlimit="4"/><path stroke-linecap="butt" transform="matrix(0.749373, -0.030655, 0.030655, 0.749373, 181.172745, 231.741928)" fill="none" stroke-linejoin="miter" d="M 20.175906 25.643309 C 22.189517 27.008002 23.784753 28.788234 24.956196 30.988996 C 26.122436 33.189545 26.584103 35.538503 26.341412 38.030666 C 26.086539 40.183506 25.343366 42.040098 24.122302 43.600868 C 22.896459 45.151018 21.392818 46.356191 19.606174 47.216175 C 17.819318 48.081364 15.923106 48.561552 13.917539 48.656741 C 11.91739 48.746938 9.997357 48.40776 8.162006 47.655031 C 6.326868 46.897097 4.782136 45.666264 3.511983 43.967095 C 2.868037 43.143211 2.598564 42.339859 2.708343 41.567659 C 2.813131 40.790042 3.14285 40.120668 3.697924 39.549128 C 4.258629 38.967393 4.953028 38.557933 5.781123 38.320748 C 6.609218 38.083564 7.448975 38.071002 8.28956 38.293045 C 9.14597 38.510523 9.880324 39.035769 10.498037 39.863792 C 10.778911 40.261021 11.317027 40.486329 12.107393 40.534299 C 12.907955 40.587899 13.706931 40.552818 14.499119 40.428844 C 15.291519 40.299666 15.849741 40.160908 16.173357 40.022978 C 16.928289 39.662909 17.497485 39.128435 17.87553 38.424549 C 18.253574 37.720663 18.38916 36.954731 18.27188 36.126329 C 18.167255 35.116 17.804962 34.288 17.190205 33.642541 C 16.580865 32.992092 15.853419 32.425427 14.997458 31.94212 C 14.152331 31.448832 13.301148 30.976146 12.438493 30.529054 C 11.575838 30.081963 10.819391 29.587089 10.16894 29.049637 C 8.362659 27.458854 7.260525 25.730069 6.867314 23.873905 C 6.468899 22.017527 6.607345 20.16226 7.277024 18.3183 C 7.942137 16.458514 8.980542 14.775592 10.377051 13.258488 C 11.783756 11.747013 13.390412 10.572117 15.19702 9.733801 C 16.175202 9.268185 17.076886 9.143477 17.901859 9.364881 C 18.732462 9.576091 19.440488 9.980368 20.031141 10.577926 C 20.627211 11.170493 21.031466 11.86468 21.243695 12.66569 C 21.461554 13.456506 21.430261 14.221491 21.139407 14.96022 C 20.85896 15.699375 20.24579 16.289389 19.300322 16.719855 C 18.694721 16.997417 17.985136 17.39583 17.161583 17.90426 C 16.353855 18.408125 15.688006 19.011622 15.169241 19.714965 C 14.650477 20.418307 14.55068 21.201341 14.864647 22.063853 C 15.049389 22.644806 15.472142 23.141668 16.132693 23.559641 C 16.803866 23.972836 17.518586 24.340898 18.271437 24.668819 C 19.029705 24.991748 19.662651 25.319977 20.175906 25.643309 Z M 20.175906 25.643309 " stroke="#830000" stroke-width="14.196814" stroke-opacity="1" stroke-miterlimit="4"/><path stroke-linecap="butt" transform="matrix(0.72997, -0.172172, 0.172172, 0.72997, 199.480333, 231.499732)" fill="none" stroke-linejoin="miter" d="M 23.200114 11.198223 C 23.384962 10.187626 23.794529 9.449433 24.440147 8.980965 C 25.090834 8.513693 25.820427 8.279082 26.632799 8.283396 C 27.441297 8.281445 28.214786 8.495989 28.953266 8.927028 C 29.691746 9.358067 30.268198 9.954237 30.68382 10.71047 C 31.104511 11.467898 31.206029 12.353393 30.988373 13.366954 C 29.044241 23.311227 27.707558 33.33456 26.985784 43.428009 C 26.918436 44.439563 26.584573 45.265178 25.985389 45.899783 C 25.394861 46.520377 24.679183 46.945564 23.845814 47.166401 C 23.014836 47.3771 22.217672 47.376373 21.442988 47.166898 C 20.665625 46.946089 20.024657 46.532698 19.515013 45.925529 C 19.012829 45.309417 18.802131 44.47844 18.879043 43.426332 C 18.987909 41.739611 19.119443 40.047534 19.27752 38.356366 C 19.441861 36.661324 19.612466 34.962409 19.794406 33.260816 L 12.382536 33.262495 C 12.128473 35.428689 11.871732 37.583549 11.616187 39.73334 C 11.374367 41.870314 11.122409 44.004897 10.866577 46.133215 C 10.726442 47.181114 10.348438 48.012372 9.731368 48.632057 C 9.122955 49.237729 8.40192 49.640248 7.564391 49.833348 C 6.735805 50.033908 5.927307 50.035859 5.135023 49.832935 C 4.346613 49.636277 3.713392 49.235416 3.246693 48.627673 C 2.78119 48.014862 2.618506 47.184507 2.758641 46.136608 C 3.086791 43.17985 3.428667 40.210276 3.788142 37.23415 C 4.152686 34.25922 4.491885 31.278312 4.818266 28.283678 C 4.995277 26.875241 5.16454 25.454274 5.320987 24.019581 C 5.489964 22.577142 5.658941 21.134702 5.834182 19.688389 C 5.986658 18.429351 6.102789 17.097525 6.193909 15.690235 C 6.27996 14.281749 6.559502 12.983114 7.022397 11.791941 C 7.385865 10.818123 7.934692 10.102074 8.676626 9.656323 C 9.414686 9.204308 10.203914 8.989113 11.050574 9.006866 C 11.902304 9.025814 12.692197 9.238876 13.412791 9.654994 C 14.134581 10.066043 14.647525 10.636531 14.94775 11.360195 C 15.254239 12.079985 15.210231 12.947209 14.815726 13.961868 C 14.383869 15.112201 14.131778 16.385202 14.060648 17.775802 C 13.991909 19.156264 13.881756 20.462744 13.73019 21.69524 C 13.6595 22.267204 13.592684 22.845433 13.519603 23.427535 C 13.448914 23.999499 13.378224 24.571463 13.310213 25.154761 L 20.823181 25.155522 C 21.147402 22.85069 21.508017 20.527685 21.905025 18.186508 C 22.299356 15.833996 22.730653 13.506258 23.200114 11.198223 Z M 23.200114 11.198223 " stroke="#830000" stroke-width="14.196814" stroke-opacity="1" stroke-miterlimit="4"/><path stroke-linecap="butt" transform="matrix(0.678719, -0.319124, 0.319124, 0.678719, 220.443477, 227.023828)" fill="none" stroke-linejoin="miter" d="M 30.061324 15.952499 C 30.936391 17.359614 31.529036 18.938971 31.843973 20.692785 C 32.170271 22.434675 32.317776 24.201851 32.283991 25.987382 C 32.245493 27.770698 32.104112 29.442331 31.859567 30.990638 C 31.495264 33.368957 30.759733 35.618773 29.64161 37.752008 C 28.525704 39.88053 27.027705 41.720046 25.152326 43.272773 C 23.347333 44.749244 21.250861 45.829675 18.867621 46.516283 C 16.493528 47.19568 14.167714 47.172607 11.894895 46.44928 C 10.380888 45.984896 9.064432 45.210524 7.950239 44.12838 C 6.831332 43.04402 5.890624 41.813233 5.135044 40.433523 C 4.379183 39.04217 3.820688 37.622753 3.457342 36.179986 C 3.027696 34.596695 2.776216 32.769122 2.707616 30.699482 C 2.63652 28.622913 2.781079 26.503859 3.143512 24.337608 C 3.505944 22.171356 4.097957 20.153337 4.923982 18.274124 C 5.752505 16.401841 6.873037 14.851026 8.276434 13.628891 C 9.720218 12.149491 11.45411 11.105771 13.466466 10.498014 C 15.481038 9.885543 17.554235 9.674733 19.686336 9.877225 C 21.815941 10.072788 23.797096 10.682 25.625371 11.714288 C 27.465288 12.746294 28.943845 14.15515 30.061324 15.952499 Z M 20.229194 36.998326 C 21.450208 35.845831 22.356803 34.505214 22.94648 32.969544 C 23.543086 31.431377 23.914296 29.821763 24.055677 28.15013 C 24.206484 26.48293 24.176282 24.845728 23.963136 23.25488 C 23.74306 21.66653 23.1178 20.376871 22.089289 19.369546 C 21.060779 18.362221 19.697567 17.870897 18.011578 17.906936 C 17.067949 17.906416 16.157941 18.140406 15.276839 18.606689 C 14.395737 19.072973 13.664931 19.684743 13.084423 20.441999 C 12.439927 21.347585 11.976787 22.430527 11.683358 23.691105 C 11.392146 24.94697 11.180466 26.119368 11.038891 27.203866 C 10.712857 29.6232 10.835616 32.006071 11.404672 34.34555 C 11.59368 35.032972 11.836188 35.716773 12.134695 36.403882 C 12.442347 37.083781 12.886902 37.643879 13.46836 38.084177 C 14.400291 38.758325 15.470963 39.00275 16.673166 38.808305 C 17.891444 38.604152 18.94469 38.126724 19.842052 37.368808 C 19.960664 37.263429 20.08814 37.139196 20.229194 36.998326 Z M 20.229194 36.998326 " stroke="#830000" stroke-width="14.196814" stroke-opacity="1" stroke-miterlimit="4"/><path stroke-linecap="butt" transform="matrix(0.597602, -0.45318, 0.45318, 0.597602, 240.774641, 217.894162)" fill="none" stroke-linejoin="miter" d="M 21.850998 12.126064 C 23.575569 12.799815 25.151951 13.7207 26.57914 14.881421 C 28.005326 16.034845 29.156679 17.352436 30.036344 18.830045 C 30.926453 20.302502 31.432549 21.902087 31.555633 23.636098 C 31.678718 25.37011 31.30975 27.175468 30.44458 29.049025 C 29.330236 31.354598 27.777824 33.177629 25.801938 34.516113 C 23.820899 35.844152 21.627724 36.710642 19.224559 37.104135 C 16.832841 37.499773 14.463497 37.409063 12.119676 36.827858 C 11.90042 38.884014 11.682166 40.947468 11.459763 43.007774 C 11.246801 45.05563 11.030692 47.107637 10.814583 49.159643 C 10.709036 50.203889 10.354627 51.033268 9.757649 51.639482 C 9.165824 52.256139 8.453199 52.670069 7.619774 52.881271 C 6.791501 53.102917 5.981074 53.102779 5.188491 52.880859 C 4.393765 52.670385 3.767839 52.254555 3.300271 51.638522 C 2.833705 51.029785 2.634953 50.205801 2.706159 49.155123 C 3.209929 44.327522 3.696097 39.480035 4.158367 34.620963 C 4.634228 29.752588 5.139139 24.906243 5.675245 20.07048 C 5.933304 18.161406 6.454958 16.439152 7.248506 14.910012 C 8.040049 13.366277 9.390841 12.240101 11.298875 11.516891 C 13.002314 10.873845 14.77537 10.656175 16.624338 10.85558 C 18.479599 11.046686 20.222153 11.472612 21.850998 12.126064 Z M 12.927603 28.668491 C 13.825215 28.924304 14.849437 29.073495 16.002275 29.13066 C 17.15411 29.180528 18.290174 29.061559 19.410469 28.773755 C 20.526613 28.482803 21.462577 27.98985 22.218362 27.294896 C 22.976291 26.588494 23.413804 25.606429 23.528896 24.334106 C 23.598719 23.54384 23.323573 22.786118 22.707607 22.064087 C 22.103088 21.3442 21.312718 20.705618 20.33335 20.152492 C 19.363423 19.586917 18.394673 19.192183 17.415651 18.966147 C 16.434623 18.725517 15.604449 18.716942 14.920977 18.937273 C 14.522507 19.040367 14.279421 19.110952 14.191717 19.149028 C 14.107161 19.182955 14.062964 19.267096 14.062272 19.397303 C 14.060578 19.520212 13.968759 19.744728 13.786816 20.07085 C 13.573714 20.575975 13.465088 21.219157 13.466092 22.01084 C 13.467096 22.802524 13.449909 23.4889 13.414531 24.069971 C 13.343843 24.826898 13.259565 25.593128 13.161695 26.36866 C 13.075272 27.146337 12.99829 27.911564 12.927603 28.668491 Z M 12.927603 28.668491 " stroke="#830000" stroke-width="14.196814" stroke-opacity="1" stroke-miterlimit="4"/><g fill="#ffffff" fill-opacity="1"><g transform="translate(81.802459, 221.063527)"><g><path d="M 19.84375 5.3125 C 20.519531 5.707031 20.96875 6.1875 21.1875 6.75 C 21.414062 7.3125 21.457031 7.894531 21.3125 8.5 C 21.164062 9.101562 20.878906 9.640625 20.453125 10.109375 C 20.023438 10.585938 19.515625 10.894531 18.921875 11.03125 C 18.328125 11.164062 17.679688 11.050781 16.984375 10.6875 C 15.710938 10.019531 14.484375 9.257812 13.296875 8.40625 C 12.117188 7.5625 11.078125 6.582031 10.171875 5.46875 C 9.273438 4.351562 8.609375 3.082031 8.171875 1.65625 C 7.609375 -0.1875 7.582031 -2.019531 8.09375 -3.84375 C 8.601562 -5.664062 9.5625 -7.25 10.96875 -8.59375 C 12.351562 -9.90625 13.941406 -10.898438 15.734375 -11.578125 C 17.535156 -12.253906 19.40625 -12.59375 21.34375 -12.59375 C 23.28125 -12.601562 25.132812 -12.257812 26.90625 -11.5625 C 28.675781 -10.863281 30.207031 -9.796875 31.5 -8.359375 C 32.019531 -7.785156 32.296875 -7.171875 32.328125 -6.515625 C 32.367188 -5.867188 32.226562 -5.265625 31.90625 -4.703125 C 31.59375 -4.148438 31.175781 -3.707031 30.65625 -3.375 C 30.132812 -3.050781 29.578125 -2.921875 28.984375 -2.984375 C 28.390625 -3.046875 27.828125 -3.363281 27.296875 -3.9375 C 26.359375 -4.988281 25.210938 -5.71875 23.859375 -6.125 C 22.503906 -6.539062 21.125 -6.632812 19.71875 -6.40625 C 18.320312 -6.1875 17.050781 -5.648438 15.90625 -4.796875 C 14.894531 -4.078125 14.265625 -3.320312 14.015625 -2.53125 C 13.773438 -1.75 13.789062 -0.972656 14.0625 -0.203125 C 14.34375 0.566406 14.800781 1.296875 15.4375 1.984375 C 16.070312 2.671875 16.773438 3.300781 17.546875 3.875 C 18.328125 4.445312 19.09375 4.925781 19.84375 5.3125 Z M 19.84375 5.3125 "/></g></g></g><g fill="#ffffff" fill-opacity="1"><g transform="translate(101.870876, 239.785936)"><g><path d="M 32.25 -9.109375 C 32.25 -7.859375 32 -6.613281 31.5 -5.375 C 31.007812 -4.132812 30.398438 -2.953125 29.671875 -1.828125 C 28.941406 -0.710938 28.191406 0.289062 27.421875 1.1875 C 26.242188 2.550781 24.878906 3.6875 23.328125 4.59375 C 21.773438 5.507812 20.085938 6.09375 18.265625 6.34375 C 16.535156 6.5625 14.78125 6.414062 13 5.90625 C 11.21875 5.40625 9.75 4.46875 8.59375 3.09375 C 7.8125 2.195312 7.273438 1.179688 6.984375 0.046875 C 6.703125 -1.085938 6.59375 -2.242188 6.65625 -3.421875 C 6.726562 -4.597656 6.9375 -5.71875 7.28125 -6.78125 C 7.644531 -7.96875 8.210938 -9.234375 8.984375 -10.578125 C 9.765625 -11.921875 10.695312 -13.207031 11.78125 -14.4375 C 12.875 -15.675781 14.054688 -16.726562 15.328125 -17.59375 C 16.597656 -18.457031 17.921875 -19.003906 19.296875 -19.234375 C 20.796875 -19.597656 22.3125 -19.570312 23.84375 -19.15625 C 25.375 -18.75 26.773438 -18.0625 28.046875 -17.09375 C 29.328125 -16.125 30.347656 -14.945312 31.109375 -13.5625 C 31.878906 -12.175781 32.257812 -10.691406 32.25 -9.109375 Z M 17.640625 0.390625 C 18.878906 0.140625 19.992188 -0.351562 20.984375 -1.09375 C 21.972656 -1.832031 22.84375 -2.703125 23.59375 -3.703125 C 24.34375 -4.710938 24.96875 -5.773438 25.46875 -6.890625 C 25.945312 -7.984375 26.0625 -9.050781 25.8125 -10.09375 C 25.5625 -11.144531 24.890625 -12 23.796875 -12.65625 C 23.203125 -13.019531 22.53125 -13.226562 21.78125 -13.28125 C 21.039062 -13.332031 20.332031 -13.234375 19.65625 -12.984375 C 18.894531 -12.660156 18.171875 -12.15625 17.484375 -11.46875 C 16.796875 -10.78125 16.191406 -10.125 15.671875 -9.5 C 14.492188 -8.082031 13.628906 -6.515625 13.078125 -4.796875 C 12.921875 -4.285156 12.800781 -3.753906 12.71875 -3.203125 C 12.644531 -2.648438 12.703125 -2.117188 12.890625 -1.609375 C 13.222656 -0.796875 13.816406 -0.21875 14.671875 0.125 C 15.523438 0.476562 16.382812 0.59375 17.25 0.46875 C 17.363281 0.445312 17.492188 0.421875 17.640625 0.390625 Z M 17.640625 0.390625 "/></g></g></g><g fill="#ffffff" fill-opacity="1"><g transform="translate(127.425702, 255.147877)"><g><path d="M 20.3125 -2.84375 C 21.09375 -2.789062 21.695312 -2.539062 22.125 -2.09375 C 22.550781 -1.644531 22.816406 -1.113281 22.921875 -0.5 C 23.023438 0.113281 22.972656 0.710938 22.765625 1.296875 C 22.566406 1.890625 22.21875 2.375 21.71875 2.75 C 21.21875 3.132812 20.578125 3.285156 19.796875 3.203125 C 18.367188 3.097656 16.941406 2.878906 15.515625 2.546875 C 14.097656 2.222656 12.75 1.726562 11.46875 1.0625 C 10.195312 0.40625 9.085938 -0.488281 8.140625 -1.625 C 6.898438 -3.113281 6.15625 -4.796875 5.90625 -6.671875 C 5.664062 -8.554688 5.921875 -10.378906 6.671875 -12.140625 C 7.421875 -13.878906 8.492188 -15.421875 9.890625 -16.765625 C 11.285156 -18.109375 12.863281 -19.15625 14.625 -19.90625 C 16.394531 -20.664062 18.234375 -21.070312 20.140625 -21.125 C 22.054688 -21.1875 23.894531 -20.820312 25.65625 -20.03125 C 26.351562 -19.6875 26.847656 -19.222656 27.140625 -18.640625 C 27.429688 -18.054688 27.539062 -17.453125 27.46875 -16.828125 C 27.40625 -16.203125 27.195312 -15.632812 26.84375 -15.125 C 26.488281 -14.625 26.023438 -14.28125 25.453125 -14.09375 C 24.878906 -13.90625 24.242188 -13.988281 23.546875 -14.34375 C 22.253906 -14.925781 20.90625 -15.140625 19.5 -14.984375 C 18.101562 -14.828125 16.800781 -14.363281 15.59375 -13.59375 C 14.394531 -12.832031 13.441406 -11.847656 12.734375 -10.640625 C 12.078125 -9.554688 11.785156 -8.597656 11.859375 -7.765625 C 11.941406 -6.941406 12.265625 -6.238281 12.828125 -5.65625 C 13.390625 -5.082031 14.09375 -4.59375 14.9375 -4.1875 C 15.78125 -3.78125 16.675781 -3.472656 17.625 -3.265625 C 18.570312 -3.054688 19.46875 -2.914062 20.3125 -2.84375 Z M 20.3125 -2.84375 "/></g></g></g><g fill="#ffffff" fill-opacity="1"><g transform="translate(153.239445, 264.470328)"><g><path d="M 26.0625 -21.046875 C 26.550781 -19.910156 26.8125 -18.675781 26.84375 -17.34375 C 26.882812 -16.007812 26.789062 -14.679688 26.5625 -13.359375 C 26.332031 -12.046875 26.035156 -10.828125 25.671875 -9.703125 C 25.128906 -7.972656 24.320312 -6.382812 23.25 -4.9375 C 22.175781 -3.488281 20.859375 -2.300781 19.296875 -1.375 C 17.785156 -0.488281 16.109375 0.0703125 14.265625 0.3125 C 12.429688 0.550781 10.710938 0.269531 9.109375 -0.53125 C 8.046875 -1.039062 7.160156 -1.757812 6.453125 -2.6875 C 5.742188 -3.625 5.1875 -4.648438 4.78125 -5.765625 C 4.382812 -6.878906 4.132812 -7.992188 4.03125 -9.109375 C 3.882812 -10.316406 3.90625 -11.695312 4.09375 -13.25 C 4.289062 -14.800781 4.644531 -16.359375 5.15625 -17.921875 C 5.675781 -19.484375 6.347656 -20.910156 7.171875 -22.203125 C 8.003906 -23.503906 9.003906 -24.523438 10.171875 -25.265625 C 11.410156 -26.191406 12.816406 -26.765625 14.390625 -26.984375 C 15.960938 -27.210938 17.523438 -27.128906 19.078125 -26.734375 C 20.628906 -26.347656 22.023438 -25.671875 23.265625 -24.703125 C 24.515625 -23.734375 25.445312 -22.515625 26.0625 -21.046875 Z M 16.375 -6.578125 C 17.414062 -7.285156 18.242188 -8.175781 18.859375 -9.25 C 19.472656 -10.320312 19.925781 -11.46875 20.21875 -12.6875 C 20.519531 -13.914062 20.6875 -15.128906 20.71875 -16.328125 C 20.726562 -17.535156 20.40625 -18.566406 19.75 -19.421875 C 19.101562 -20.285156 18.15625 -20.804688 16.90625 -20.984375 C 16.21875 -21.085938 15.519531 -21.015625 14.8125 -20.765625 C 14.101562 -20.523438 13.488281 -20.160156 12.96875 -19.671875 C 12.382812 -19.078125 11.914062 -18.328125 11.5625 -17.421875 C 11.207031 -16.523438 10.914062 -15.679688 10.6875 -14.890625 C 10.15625 -13.140625 9.976562 -11.363281 10.15625 -9.5625 C 10.195312 -9.019531 10.289062 -8.476562 10.4375 -7.9375 C 10.59375 -7.40625 10.851562 -6.941406 11.21875 -6.546875 C 11.851562 -5.929688 12.628906 -5.628906 13.546875 -5.640625 C 14.460938 -5.648438 15.296875 -5.878906 16.046875 -6.328125 C 16.140625 -6.398438 16.25 -6.484375 16.375 -6.578125 Z M 16.375 -6.578125 "/></g></g></g><g fill="#ffffff" fill-opacity="1"><g transform="translate(182.674841, 268.461216)"><g><path d="M 14.390625 -18.125 C 15.953125 -17.164062 17.203125 -15.875 18.140625 -14.25 C 19.085938 -12.632812 19.503906 -10.898438 19.390625 -9.046875 C 19.273438 -7.410156 18.78125 -5.992188 17.90625 -4.796875 C 17.039062 -3.597656 15.953125 -2.644531 14.640625 -1.9375 C 13.328125 -1.226562 11.921875 -0.804688 10.421875 -0.671875 C 8.929688 -0.546875 7.484375 -0.738281 6.078125 -1.25 C 4.679688 -1.769531 3.484375 -2.644531 2.484375 -3.875 C 1.972656 -4.476562 1.742188 -5.070312 1.796875 -5.65625 C 1.859375 -6.25 2.085938 -6.769531 2.484375 -7.21875 C 2.890625 -7.664062 3.394531 -7.988281 4 -8.1875 C 4.613281 -8.394531 5.242188 -8.425781 5.890625 -8.28125 C 6.535156 -8.144531 7.101562 -7.78125 7.59375 -7.1875 C 7.8125 -6.882812 8.21875 -6.722656 8.8125 -6.703125 C 9.414062 -6.691406 10.007812 -6.75 10.59375 -6.875 C 11.1875 -7 11.597656 -7.117188 11.828125 -7.234375 C 12.390625 -7.523438 12.800781 -7.9375 13.0625 -8.46875 C 13.320312 -9.007812 13.398438 -9.585938 13.296875 -10.203125 C 13.191406 -10.960938 12.894531 -11.570312 12.40625 -12.03125 C 11.925781 -12.5 11.359375 -12.898438 10.703125 -13.234375 C 10.054688 -13.578125 9.40625 -13.90625 8.75 -14.21875 C 8.09375 -14.53125 7.515625 -14.878906 7.015625 -15.265625 C 5.609375 -16.398438 4.726562 -17.65625 4.375 -19.03125 C 4.019531 -20.414062 4.0625 -21.8125 4.5 -23.21875 C 4.945312 -24.632812 5.671875 -25.929688 6.671875 -27.109375 C 7.679688 -28.285156 8.847656 -29.210938 10.171875 -29.890625 C 10.898438 -30.265625 11.578125 -30.382812 12.203125 -30.25 C 12.828125 -30.113281 13.367188 -29.832031 13.828125 -29.40625 C 14.296875 -28.976562 14.625 -28.46875 14.8125 -27.875 C 15 -27.289062 14.992188 -26.71875 14.796875 -26.15625 C 14.597656 -25.601562 14.160156 -25.148438 13.484375 -24.796875 C 13.035156 -24.554688 12.515625 -24.234375 11.921875 -23.828125 C 11.328125 -23.421875 10.84375 -22.945312 10.46875 -22.40625 C 10.101562 -21.863281 10.050781 -21.273438 10.3125 -20.640625 C 10.46875 -20.210938 10.800781 -19.851562 11.3125 -19.5625 C 11.820312 -19.28125 12.363281 -19.023438 12.9375 -18.796875 C 13.519531 -18.578125 14.003906 -18.351562 14.390625 -18.125 Z M 14.390625 -18.125 "/></g></g></g><g fill="#ffffff" fill-opacity="1"><g transform="translate(207.916771, 267.268278)"><g><path d="M 10.421875 -31.609375 C 10.390625 -32.367188 10.566406 -32.972656 10.953125 -33.421875 C 11.335938 -33.878906 11.828125 -34.175781 12.421875 -34.3125 C 13.015625 -34.457031 13.617188 -34.429688 14.234375 -34.234375 C 14.847656 -34.035156 15.375 -33.695312 15.8125 -33.21875 C 16.25 -32.738281 16.472656 -32.117188 16.484375 -31.359375 C 16.773438 -23.742188 17.523438 -16.191406 18.734375 -8.703125 C 18.859375 -7.960938 18.757812 -7.3125 18.4375 -6.75 C 18.113281 -6.1875 17.664062 -5.753906 17.09375 -5.453125 C 16.519531 -5.148438 15.929688 -5.007812 15.328125 -5.03125 C 14.722656 -5.050781 14.1875 -5.242188 13.71875 -5.609375 C 13.25 -5.972656 12.953125 -6.539062 12.828125 -7.3125 C 12.617188 -8.570312 12.425781 -9.832031 12.25 -11.09375 C 12.070312 -12.351562 11.90625 -13.617188 11.75 -14.890625 L 6.328125 -13.609375 C 6.515625 -11.992188 6.703125 -10.378906 6.890625 -8.765625 C 7.078125 -7.160156 7.257812 -5.5625 7.4375 -3.96875 C 7.507812 -3.164062 7.375 -2.488281 7.03125 -1.9375 C 6.695312 -1.394531 6.242188 -0.976562 5.671875 -0.6875 C 5.109375 -0.394531 4.519531 -0.253906 3.90625 -0.265625 C 3.289062 -0.285156 2.757812 -0.472656 2.3125 -0.828125 C 1.863281 -1.191406 1.59375 -1.769531 1.5 -2.5625 C 1.25 -4.78125 0.992188 -7.003906 0.734375 -9.234375 C 0.484375 -11.472656 0.222656 -13.707031 -0.046875 -15.9375 C -0.171875 -17.007812 -0.296875 -18.082031 -0.421875 -19.15625 C -0.546875 -20.226562 -0.664062 -21.304688 -0.78125 -22.390625 C -0.894531 -23.347656 -1.035156 -24.347656 -1.203125 -25.390625 C -1.378906 -26.429688 -1.40625 -27.421875 -1.28125 -28.359375 C -1.1875 -29.128906 -0.90625 -29.742188 -0.4375 -30.203125 C 0.0195312 -30.671875 0.5625 -30.96875 1.1875 -31.09375 C 1.8125 -31.226562 2.421875 -31.207031 3.015625 -31.03125 C 3.609375 -30.851562 4.078125 -30.523438 4.421875 -30.046875 C 4.773438 -29.578125 4.894531 -28.9375 4.78125 -28.125 C 4.664062 -27.207031 4.703125 -26.238281 4.890625 -25.21875 C 5.078125 -24.195312 5.21875 -23.222656 5.3125 -22.296875 C 5.375 -21.859375 5.425781 -21.421875 5.46875 -20.984375 C 5.519531 -20.554688 5.566406 -20.128906 5.609375 -19.703125 L 11.078125 -20.984375 C 10.929688 -22.734375 10.800781 -24.492188 10.6875 -26.265625 C 10.570312 -28.046875 10.484375 -29.828125 10.421875 -31.609375 Z M 10.421875 -31.609375 "/></g></g></g><g fill="#ffffff" fill-opacity="1"><g transform="translate(236.080545, 260.281073)"><g><path d="M 9.859375 -32.015625 C 10.898438 -31.347656 11.804688 -30.46875 12.578125 -29.375 C 13.347656 -28.289062 14.007812 -27.132812 14.5625 -25.90625 C 15.113281 -24.6875 15.550781 -23.515625 15.875 -22.390625 C 16.382812 -20.660156 16.597656 -18.894531 16.515625 -17.09375 C 16.429688 -15.289062 16.003906 -13.566406 15.234375 -11.921875 C 14.484375 -10.335938 13.410156 -8.929688 12.015625 -7.703125 C 10.617188 -6.484375 9.035156 -5.753906 7.265625 -5.515625 C 6.085938 -5.359375 4.941406 -5.46875 3.828125 -5.84375 C 2.722656 -6.21875 1.695312 -6.753906 0.75 -7.453125 C -0.195312 -8.148438 -1.03125 -8.9375 -1.75 -9.8125 C -2.539062 -10.738281 -3.289062 -11.894531 -4 -13.28125 C -4.707031 -14.664062 -5.285156 -16.148438 -5.734375 -17.734375 C -6.179688 -19.328125 -6.421875 -20.890625 -6.453125 -22.421875 C -6.492188 -23.960938 -6.234375 -25.375 -5.671875 -26.65625 C -5.171875 -28.113281 -4.328125 -29.367188 -3.140625 -30.421875 C -1.960938 -31.484375 -0.625 -32.285156 0.875 -32.828125 C 2.382812 -33.378906 3.925781 -33.597656 5.5 -33.484375 C 7.070312 -33.378906 8.523438 -32.890625 9.859375 -32.015625 Z M 9.90625 -14.59375 C 10.363281 -15.769531 10.550781 -16.972656 10.46875 -18.203125 C 10.382812 -19.429688 10.125 -20.632812 9.6875 -21.8125 C 9.25 -23 8.703125 -24.101562 8.046875 -25.125 C 7.390625 -26.132812 6.550781 -26.816406 5.53125 -27.171875 C 4.507812 -27.523438 3.429688 -27.421875 2.296875 -26.859375 C 1.660156 -26.554688 1.117188 -26.101562 0.671875 -25.5 C 0.222656 -24.90625 -0.078125 -24.257812 -0.234375 -23.5625 C -0.378906 -22.75 -0.347656 -21.863281 -0.140625 -20.90625 C 0.0664062 -19.957031 0.296875 -19.097656 0.546875 -18.328125 C 1.085938 -16.566406 1.925781 -14.988281 3.0625 -13.59375 C 3.414062 -13.1875 3.800781 -12.796875 4.21875 -12.421875 C 4.632812 -12.054688 5.113281 -11.816406 5.65625 -11.703125 C 6.507812 -11.546875 7.316406 -11.726562 8.078125 -12.25 C 8.835938 -12.769531 9.398438 -13.425781 9.765625 -14.21875 C 9.804688 -14.332031 9.851562 -14.457031 9.90625 -14.59375 Z M 9.90625 -14.59375 "/></g></g></g><g fill="#ffffff" fill-opacity="1"><g transform="translate(262.980465, 247.176644)"><g><path d="M -3.640625 -31.9375 C -2.304688 -32.3125 -0.957031 -32.476562 0.40625 -32.4375 C 1.78125 -32.394531 3.066406 -32.128906 4.265625 -31.640625 C 5.472656 -31.160156 6.503906 -30.429688 7.359375 -29.453125 C 8.222656 -28.484375 8.820312 -27.238281 9.15625 -25.71875 C 9.519531 -23.832031 9.410156 -22.039062 8.828125 -20.34375 C 8.253906 -18.65625 7.34375 -17.148438 6.09375 -15.828125 C 4.84375 -14.503906 3.390625 -13.484375 1.734375 -12.765625 C 2.535156 -11.429688 3.332031 -10.101562 4.125 -8.78125 C 4.925781 -7.457031 5.734375 -6.132812 6.546875 -4.8125 C 6.941406 -4.132812 7.097656 -3.476562 7.015625 -2.84375 C 6.941406 -2.207031 6.707031 -1.632812 6.3125 -1.125 C 5.914062 -0.625 5.429688 -0.257812 4.859375 -0.03125 C 4.285156 0.195312 3.722656 0.234375 3.171875 0.078125 C 2.617188 -0.078125 2.128906 -0.484375 1.703125 -1.140625 C -0.191406 -4.242188 -2.101562 -7.351562 -4.03125 -10.46875 C -5.957031 -13.59375 -7.847656 -16.726562 -9.703125 -19.875 C -10.421875 -21.125 -10.890625 -22.382812 -11.109375 -23.65625 C -11.335938 -24.9375 -11.039062 -26.222656 -10.21875 -27.515625 C -9.5 -28.679688 -8.539062 -29.625 -7.34375 -30.34375 C -6.144531 -31.0625 -4.910156 -31.59375 -3.640625 -31.9375 Z M -1.5 -18.015625 C -0.84375 -18.265625 -0.160156 -18.632812 0.546875 -19.125 C 1.265625 -19.613281 1.890625 -20.195312 2.421875 -20.875 C 2.960938 -21.550781 3.300781 -22.269531 3.4375 -23.03125 C 3.570312 -23.800781 3.390625 -24.585938 2.890625 -25.390625 C 2.566406 -25.898438 2.054688 -26.234375 1.359375 -26.390625 C 0.660156 -26.546875 -0.0976562 -26.566406 -0.921875 -26.453125 C -1.753906 -26.335938 -2.515625 -26.132812 -3.203125 -25.84375 C -3.898438 -25.550781 -4.398438 -25.179688 -4.703125 -24.734375 C -4.898438 -24.492188 -5.015625 -24.335938 -5.046875 -24.265625 C -5.078125 -24.203125 -5.0625 -24.132812 -5 -24.0625 C -4.945312 -23.988281 -4.90625 -23.816406 -4.875 -23.546875 C -4.78125 -23.140625 -4.550781 -22.695312 -4.1875 -22.21875 C -3.820312 -21.738281 -3.519531 -21.328125 -3.28125 -20.984375 C -2.976562 -20.492188 -2.675781 -19.992188 -2.375 -19.484375 C -2.082031 -18.984375 -1.789062 -18.492188 -1.5 -18.015625 Z M -1.5 -18.015625 "/></g></g></g><g fill="#ffffff" fill-opacity="1"><g transform="translate(285.35158, 229.273613)"><g/></g></g></svg>